<?xml version="1.0" standalone="no"?>
<!DOCTYPE svg PUBLIC "-//W3C//DTD SVG 1.1//EN" "http://www.w3.org/Graphics/SVG/1.1/DTD/svg11.dtd" >
<svg>
<metadata>
Created by FontForge 20120731 at Wed Aug  3 11:55:25 2016
 By www
Copyright (c) 2008 by TypeTogether. All rights reserved.
</metadata>
<defs>
<font id="RonniaW01-CondBold" horiz-adv-x="400" >
  <font-face 
    font-family="RonniaW01-CondBold"
    font-weight="700"
    font-stretch="normal"
    units-per-em="1000"
    panose-1="2 1 8 6 3 1 2 2 2 4"
    ascent="754"
    descent="-246"
    x-height="549"
    cap-height="719"
    bbox="-90 -264 1001 1003"
    underline-thickness="50"
    underline-position="-100"
    unicode-range="U+000D-2122"
  />
<missing-glyph horiz-adv-x="0" 
 />
    <glyph glyph-name=".notdef" horiz-adv-x="0" 
 />
    <glyph glyph-name=".null" horiz-adv-x="0" 
 />
    <glyph glyph-name="uni000D" unicode="&#xd;" horiz-adv-x="369" 
 />
    <glyph glyph-name="space" unicode=" " horiz-adv-x="165" 
 />
    <glyph glyph-name="exclam" unicode="!" horiz-adv-x="250" 
d="M56 69q0 32 17.5 56t51.5 24q33 0 51 -22t18 -57q0 -33 -17.5 -56t-50.5 -23q-32 0 -51 21.5t-19 56.5zM50 719h150l-15 -506h-118z" />
    <glyph glyph-name="quotedbl" unicode="&#x22;" horiz-adv-x="328" 
d="M298 706l-13 -258h-88l-14 258h115zM145 706l-13 -258h-88l-14 258h115z" />
    <glyph glyph-name="numbersign" unicode="#" horiz-adv-x="597" 
d="M246 282h78l25 108h-79zM107 495h90l43 167h103l-42 -167h77l43 167h104l-42 -167h94l-31 -105h-94l-25 -108h98l-33 -102h-96l-44 -180h-106l45 180h-76l-44 -180h-105l45 180h-92l34 102h89l25 108h-90z" />
    <glyph glyph-name="dollar" unicode="$" horiz-adv-x="461" 
d="M73 177q31 -27 70 -43.5t69 -16.5q29 0 48.5 17.5t19.5 53.5q0 33 -18 53t-45 35.5t-58.5 31t-58.5 39.5t-45 60.5t-18 94.5q0 39 10.5 70t28.5 54.5t42 39t51 23.5v94h130v-92q33 -9 56.5 -26.5t38.5 -40t23.5 -48.5t11.5 -50l-120 -38q-11 50 -30 69t-41 19
q-23 0 -38.5 -17.5t-15.5 -50.5q0 -29 18 -48t44.5 -35t58 -33.5t58 -43.5t44.5 -63.5t18 -93.5q0 -30 -8 -59.5t-23.5 -55t-38.5 -45t-52 -29.5v-103h-129v95q-20 2 -42.5 9t-42.5 17t-36.5 20.5t-24.5 19.5z" />
    <glyph glyph-name="percent" unicode="%" horiz-adv-x="817" 
d="M227 0l234 719h125l-235 -719h-124zM179 390q19 0 28 30t9 87q0 54 -7.5 87t-28.5 33q-20 0 -28.5 -33.5t-8.5 -88.5q0 -53 8 -84t28 -31zM181 719q66 0 106.5 -49.5t40.5 -159.5q0 -107 -41 -161t-107 -54q-70 0 -110 55t-40 158q0 55 12 95t33 65.5t48.5 38t57.5 12.5z
M638 81q19 0 27.5 30.5t8.5 86.5q0 54 -7 87t-28 33q-20 0 -29 -33t-9 -88q0 -53 8.5 -84.5t28.5 -31.5zM640 410q33 0 60 -12t46.5 -37.5t30 -65t10.5 -94.5q0 -107 -41 -160.5t-108 -53.5q-69 0 -109.5 55t-40.5 158q0 55 12 94.5t33 65t48.5 38t58.5 12.5z" />
    <glyph glyph-name="ampersand" unicode="&#x26;" horiz-adv-x="610" 
d="M248 116q52 0 89 46q-17 21 -31 39t-27.5 36.5t-27.5 38.5t-30 44q-18 -14 -34.5 -41t-16.5 -68q0 -17 5 -33.5t14.5 -30.5t24 -22.5t34.5 -8.5zM318 506q4 11 7 23.5t3 27.5q0 25 -12.5 37t-28.5 12q-21 0 -31.5 -14.5t-10.5 -36.5t11 -43.5t25 -42.5q41 -57 80.5 -109
t79.5 -102.5t81 -100.5t86 -103l-96 -88q-23 23 -48 50.5t-46 53.5q-38 -41 -80.5 -61t-100.5 -20q-57 0 -97 17.5t-65 46.5t-36.5 67t-11.5 79q0 46 11.5 80.5t29.5 60.5t41 44t46 32q-26 39 -36.5 72t-10.5 66q0 35 10.5 65t32 52.5t55 35t79.5 12.5q81 0 126.5 -39.5
t45.5 -111.5q0 -26 -8 -55t-28 -61z" />
    <glyph glyph-name="quotesingle" unicode="'" horiz-adv-x="175" 
d="M145 706l-13 -258h-88l-14 258h115z" />
    <glyph glyph-name="parenleft" unicode="(" horiz-adv-x="288" 
d="M154 -131q-54 107 -84 223t-30 244q0 107 28.5 221.5t81.5 231.5l123 -52q-21 -53 -38 -101.5t-30 -97.5t-20 -99t-7 -106q0 -60 7.5 -111.5t20 -99.5t30 -95t37.5 -98z" />
    <glyph glyph-name="parenright" unicode=")" horiz-adv-x="288" 
d="M134 789q54 -107 84 -223t30 -244q0 -107 -28.5 -221.5t-81.5 -231.5l-123 52q21 53 38 101.5t30 97.5t20 99t7 106q0 60 -7.5 111.5t-20 99.5t-30 95t-37.5 98z" />
    <glyph glyph-name="asterisk" unicode="*" horiz-adv-x="388" 
d="M225 622l43 29q12 8 26 16.5t32 8.5t30 -11.5t12 -31.5q0 -15 -7 -24.5t-16 -14.5t-18.5 -6.5t-15.5 -2.5l-71 -10zM180 529l-23 -59q-8 -20 -22 -37t-36 -17q-19 0 -30 12t-11 29q0 19 11 32t16 19l55 49zM236 557l55 -49q5 -6 16 -19t11 -32q0 -17 -11 -29t-28 -12
q-23 0 -37.5 17t-22.5 37l-23 59zM133 575l-71 10q-6 1 -15.5 2.5t-18.5 6.5t-16 14.5t-7 24.5q0 20 12 31.5t30 11.5t32 -8.5t26 -16.5l43 -29zM161 638l-11 51q-2 8 -5 25t-3 31q0 22 12 35t32 13q19 0 31.5 -12t12.5 -36q0 -14 -2 -26.5t-5 -26.5l-12 -54h-50z" />
    <glyph glyph-name="plus" unicode="+" horiz-adv-x="500" 
d="M191 542h118v-169h144v-124h-144v-171h-118v171h-145v124h145v169z" />
    <glyph glyph-name="comma" unicode="," horiz-adv-x="244" 
d="M60 101q3 34 20.5 49.5t41.5 15.5t40 -7.5t24.5 -20.5t9 -30t-5.5 -36l-81 -253l-71 17z" />
    <glyph glyph-name="hyphen" unicode="-" horiz-adv-x="327" 
d="M35 362h256v-116h-256v116z" />
    <glyph glyph-name="period" unicode="." horiz-adv-x="251" 
d="M51 74q0 34 19 60t55 26q35 0 55 -23.5t20 -61.5q0 -35 -21 -60t-56 -25t-53.5 23.5t-18.5 60.5z" />
    <glyph glyph-name="slash" unicode="/" horiz-adv-x="397" 
d="M124 -100l-121 46l272 843l122 -43z" />
    <glyph glyph-name="zero" unicode="0" horiz-adv-x="474" 
d="M236 106q18 0 31.5 12t22.5 39.5t13.5 73.5t4.5 115q0 66 -4 110.5t-12.5 71.5t-22 38.5t-31.5 11.5q-20 0 -33.5 -12t-22 -40.5t-12.5 -75t-4 -115.5q0 -124 16 -176.5t54 -52.5zM240 698q50 0 89.5 -19.5t66.5 -61.5t41.5 -108.5t14.5 -160.5q0 -98 -14.5 -166
t-42 -111t-68.5 -62t-93 -19q-54 0 -94 20.5t-66.5 64t-39.5 110.5t-13 161q0 95 16 162t45 109t69.5 61.5t88.5 19.5z" />
    <glyph glyph-name="one" unicode="1" 
d="M43 109h95v466h-86v110h231v-576h94v-109h-334v109z" />
    <glyph glyph-name="two" unicode="2" horiz-adv-x="469" 
d="M14 548q31 74 83.5 112t133.5 38q40 0 75 -12.5t61 -37t40.5 -60.5t14.5 -83q0 -40 -14.5 -89t-51.5 -109q-18 -29 -34.5 -53t-33.5 -47t-35.5 -46t-40.5 -50h219v-111h-405v86q32 37 57 67t47 59t43.5 60.5t47.5 71.5q30 47 41.5 84.5t11.5 72.5q0 33 -16.5 51t-42.5 18
t-47.5 -19.5t-38.5 -61.5z" />
    <glyph glyph-name="three" unicode="3" horiz-adv-x="451" 
d="M5 574q28 54 80 89t132 35q85 0 137.5 -46t52.5 -129q0 -57 -25.5 -96t-61.5 -62q42 -19 68.5 -58.5t26.5 -100.5q0 -47 -14 -86.5t-41.5 -68t-69 -45t-95.5 -16.5q-60 0 -106.5 18.5t-81.5 45.5l53 112q19 -13 39 -24q17 -9 39 -16.5t45 -7.5q39 0 62.5 24.5t23.5 69.5
q0 75 -59 89q-17 4 -38 5t-46 1v102h44.5t33.5 4q29 7 43 31.5t14 55.5q0 42 -21 57.5t-45 15.5q-23 0 -46 -15.5t-43 -49.5z" />
    <glyph glyph-name="four" unicode="4" horiz-adv-x="494" 
d="M257 268v154q0 9 0.5 21.5t1 26t1.5 26.5t1 23h-3q-8 -25 -16.5 -46.5t-20.5 -46.5l-77 -158h113zM257 0v161h-235v82l222 442h158v-417h71v-110h-72v-158h-144z" />
    <glyph glyph-name="five" unicode="5" horiz-adv-x="479" 
d="M228 356q-25 0 -43 -14t-34 -34l-108 37v340h363v-116h-250v-139q19 18 47 32.5t71 14.5q41 0 72.5 -16.5t52.5 -46t31.5 -69.5t10.5 -88q0 -57 -13.5 -106t-41.5 -85t-70 -56t-99 -20q-67 0 -115 20t-82 48l49 111q31 -24 63.5 -38t70.5 -14q46 0 69.5 34t23.5 91
q0 60 -19.5 87t-48.5 27z" />
    <glyph glyph-name="six" unicode="6" horiz-adv-x="492" 
d="M317 241q0 55 -15 84t-52 29q-20 0 -39.5 -9.5t-30.5 -21.5q-1 -14 -1.5 -27t-0.5 -26q0 -80 14.5 -125t54.5 -45q70 0 70 141zM283 585q-43 0 -67 -42.5t-31 -123.5q14 15 41.5 29t66.5 14q42 0 73 -16t52 -44.5t31.5 -68t10.5 -87.5q0 -119 -54.5 -187.5t-156.5 -68.5
q-111 0 -162.5 77t-51.5 242q0 104 18 177.5t50.5 120.5t78 69t100.5 22q70 0 110.5 -32t64.5 -80l-94 -66q-17 29 -33.5 47t-46.5 18z" />
    <glyph glyph-name="seven" unicode="7" horiz-adv-x="440" 
d="M17 685h414v-89l-177 -398q-11 -23 -14 -43.5t-3 -51.5v-103h-145v101q0 29 5 60t20 63l154 345h-254v116z" />
    <glyph glyph-name="eight" unicode="8" horiz-adv-x="479" 
d="M240 591q-28 0 -40 -20.5t-12 -65.5q0 -88 47 -95q11 -2 22 -3t21 -2q7 14 12 41t5 60q0 41 -14.5 63t-40.5 22zM244 305q-12 2 -24 3t-25 3q-11 -14 -16 -41.5t-5 -58.5q0 -59 17.5 -85.5t51.5 -26.5q31 0 48.5 27t17.5 84q0 52 -16 71.5t-49 23.5zM27 204q0 22 5 45.5
t14 45.5t22.5 40.5t30.5 30.5q-28 23 -41.5 60.5t-13.5 75.5q0 93 52.5 144.5t146.5 51.5q102 0 148 -50t46 -141q0 -44 -15 -82.5t-38 -65.5q35 -19 53.5 -58t18.5 -95q0 -47 -13.5 -87t-40.5 -68.5t-67.5 -44.5t-94.5 -16q-112 0 -162.5 54t-50.5 160z" />
    <glyph glyph-name="nine" unicode="9" horiz-adv-x="490" 
d="M170 448q0 -53 15 -85.5t52 -32.5q20 0 38.5 11.5t29.5 26.5q2 15 2 29v28q0 77 -14 121t-54 44q-69 0 -69 -142zM214 106q43 0 66.5 45t25.5 122q-14 -17 -43 -32.5t-65 -15.5q-43 0 -75 16.5t-53.5 46t-32 69.5t-10.5 88q0 122 57 187.5t155 65.5q106 0 159 -76
t53 -238q0 -205 -59.5 -299.5t-174.5 -94.5q-63 0 -111 24.5t-74 59.5l76 88q20 -20 48 -38t58 -18z" />
    <glyph glyph-name="colon" unicode=":" horiz-adv-x="251" 
d="M51 450q0 34 19 60t55 26q35 0 55 -23.5t20 -61.5q0 -35 -21 -60t-56 -25t-53.5 23.5t-18.5 60.5zM51 74q0 34 19 60t55 26q35 0 55 -23.5t20 -61.5q0 -35 -21 -60t-56 -25t-53.5 23.5t-18.5 60.5z" />
    <glyph glyph-name="semicolon" unicode=";" horiz-adv-x="267" 
d="M69 450q0 34 19.5 60t55.5 26q35 0 54.5 -23.5t19.5 -61.5q0 -35 -20.5 -60t-55.5 -25t-54 23.5t-19 60.5zM60 101q3 34 20.5 49.5t41.5 15.5t40 -7.5t24.5 -20.5t9 -30t-5.5 -36l-81 -253l-71 17z" />
    <glyph glyph-name="less" unicode="&#x3c;" horiz-adv-x="500" 
d="M233 315l220 -125l-54 -114l-352 191v91l352 191l54 -115z" />
    <glyph glyph-name="equal" unicode="=" horiz-adv-x="500" 
d="M52 139v124h396v-124h-396zM52 352v124h396v-124h-396z" />
    <glyph glyph-name="greater" unicode="&#x3e;" horiz-adv-x="500" 
d="M47 434l56 114l350 -190v-91l-348 -192l-58 115l220 125z" />
    <glyph glyph-name="question" unicode="?" horiz-adv-x="387" 
d="M68 69q0 32 18 56t51 24q34 0 52 -22t18 -57q0 -33 -17.5 -56t-51.5 -23q-32 0 -51 21.5t-19 56.5zM64 400q43 5 71.5 16t46 27t25 37t7.5 47q0 40 -22 57.5t-56 17.5q-41 0 -84 -12l-16 115q25 7 58 11t59 4q101 0 153.5 -49.5t52.5 -146.5q0 -68 -35.5 -122.5
t-115.5 -78.5v-111h-144v188z" />
    <glyph glyph-name="at" unicode="@" horiz-adv-x="666" 
d="M383 180q0 -41 17 -62.5t44 -21.5q14 0 25 5v154q-14 6 -26 6q-26 0 -43 -19t-17 -62zM388 572q78 0 129 -16t89 -36v-492q-50 -20 -92 -27t-76 -7q-93 0 -142.5 43t-49.5 141q0 45 13 78.5t35 55t51.5 32t61.5 10.5q21 0 36.5 -4t25.5 -9v99q-16 7 -34 11.5t-44 4.5
q-48 0 -86.5 -19t-65.5 -55t-42 -87.5t-15 -115.5q0 -61 14 -112t42 -88t70 -57.5t97 -20.5q30 0 65.5 6.5t68.5 22.5l30 -119q-76 -34 -178 -34q-94 0 -161 34.5t-110 90t-63 126.5t-20 145q0 94 27.5 168t75 125.5t111.5 78.5t137 27z" />
    <glyph glyph-name="A" unicode="A" horiz-adv-x="544" 
d="M212 280h111l-36 176q-5 28 -10.5 65t-8.5 67h-3q-2 -29 -7 -64t-10 -67zM1 0l177 719h180l185 -719h-150l-43 170h-164l-38 -170h-147z" />
    <glyph glyph-name="B" unicode="B" horiz-adv-x="529" 
d="M206 606v-181h46q38 0 56 27.5t18 67.5q0 49 -20.5 67.5t-59.5 18.5h-40zM206 318v-207h61q42 0 60.5 31.5t18.5 76.5t-18.5 72t-57.5 27h-64zM58 0v719h218q97 0 150.5 -46.5t53.5 -134.5q0 -63 -25 -102.5t-57 -54.5q49 -14 77 -59t28 -104q0 -104 -58.5 -161
t-175.5 -57h-211z" />
    <glyph glyph-name="C" unicode="C" horiz-adv-x="517" 
d="M489 39q-34 -20 -81 -36.5t-110 -16.5q-79 0 -130.5 28.5t-81.5 78t-42 116.5t-12 145q0 79 12 148.5t41.5 121t78.5 81t124 29.5q57 0 95.5 -17.5t63 -46t37.5 -64t19 -70.5l-139 -36q-9 52 -28 82t-52 30q-32 0 -51 -21t-29 -55t-13 -77.5t-3 -88.5q0 -131 29 -192.5
t105 -61.5q38 0 72.5 13.5t69.5 36.5z" />
    <glyph glyph-name="D" unicode="D" horiz-adv-x="559" 
d="M206 114h43q31 0 53.5 13.5t37.5 44.5t22.5 80.5t7.5 121.5q0 64 -6.5 108t-20 71t-34.5 39t-49 12h-54v-490zM58 719h210q55 0 102 -16t81.5 -54t54.5 -101t20 -158q0 -118 -22.5 -194t-61 -119.5t-89 -60t-106.5 -16.5h-189v719z" />
    <glyph glyph-name="E" unicode="E" horiz-adv-x="485" 
d="M58 719h392v-120h-244v-172h212v-120h-212v-186h253v-121h-401v719z" />
    <glyph glyph-name="F" unicode="F" horiz-adv-x="479" 
d="M462 719v-121h-256v-172h214v-120h-214v-306h-148v719h404z" />
    <glyph glyph-name="G" unicode="G" horiz-adv-x="555" 
d="M284 373h228v-335q-43 -23 -92.5 -37.5t-116.5 -14.5q-70 0 -121 20.5t-84.5 65.5t-49.5 117.5t-16 177.5q0 84 14.5 151.5t45 115.5t79 74t117.5 26q51 0 88.5 -14.5t63 -40.5t41 -62.5t23.5 -80.5l-137 -35q-11 54 -29.5 82.5t-52.5 28.5q-23 0 -40.5 -11.5
t-30.5 -39.5t-19.5 -73.5t-6.5 -112.5q0 -62 5 -112t18.5 -85t37 -53.5t61.5 -18.5q29 0 57 13v140h-83v114z" />
    <glyph glyph-name="H" unicode="H" horiz-adv-x="598" 
d="M539 719v-719h-148v304h-185v-304h-148v719h148v-290h185v290h148z" />
    <glyph glyph-name="I" unicode="I" horiz-adv-x="265" 
d="M206 719v-719h-148v719h148z" />
    <glyph glyph-name="J" unicode="J" horiz-adv-x="374" 
d="M42 146q22 -11 39.5 -17.5t40.5 -6.5q32 0 40.5 22.5t8.5 64.5v510h149v-510q0 -10 -0.5 -22t-1 -25t-2 -24.5t-2.5 -20.5q-12 -69 -57 -99.5t-108 -30.5q-48 0 -84 11t-59 25z" />
    <glyph glyph-name="K" unicode="K" horiz-adv-x="538" 
d="M359 380l183 -380h-161l-139 303h-38v-303h-146v719h146v-295h34l130 295h151z" />
    <glyph glyph-name="L" unicode="L" horiz-adv-x="468" 
d="M58 719h148v-598h244v-121h-392v719z" />
    <glyph glyph-name="M" unicode="M" horiz-adv-x="713" 
d="M633 719l35 -719h-136l-19 463h-3q-6 -30 -9.5 -53.5t-11.5 -55.5l-72 -287h-114l-70 281q-8 33 -12.5 58t-9.5 58h-4l-22 -464h-140l40 719h158l91 -354q5 -19 8.5 -35t6.5 -31.5t5.5 -32t5.5 -35.5h3q7 40 12.5 71.5t14.5 67.5l91 349h152z" />
    <glyph glyph-name="N" unicode="N" horiz-adv-x="591" 
d="M532 719v-719h-128l-157 341q-17 35 -26 67.5t-21 73.5l-3 -1q3 -39 5 -70.5t2 -73.5v-337h-146v719h137l152 -349q15 -35 25.5 -66t21.5 -66l3 1q-5 37 -8 68t-3 69v343h146z" />
    <glyph glyph-name="O" unicode="O" horiz-adv-x="583" 
d="M394 374q0 72 -7.5 117.5t-21 71t-31.5 35t-40 9.5q-21 0 -40.5 -10t-34 -36.5t-23 -73t-8.5 -118.5q0 -75 7 -124.5t20 -79.5t32 -42.5t43 -12.5q22 0 41 9.5t33 38t22 80.5t8 136zM288 -14q-55 0 -101.5 17t-81 60.5t-54 118t-19.5 188.5q0 92 19 160.5t53.5 113.5
t84 67.5t109.5 22.5q127 0 189.5 -87.5t62.5 -271.5q0 -114 -19.5 -189t-54.5 -119.5t-83 -62.5t-105 -18z" />
    <glyph glyph-name="P" unicode="P" horiz-adv-x="519" 
d="M254 367q47 0 70 32.5t23 94.5q0 58 -23 84t-61 26h-57v-237h48zM206 251v-251h-148v719h223q103 0 160.5 -54.5t57.5 -160.5q0 -57 -16 -104t-45.5 -80t-71.5 -51t-95 -18h-65z" />
    <glyph glyph-name="Q" unicode="Q" horiz-adv-x="580" 
d="M393 374q0 72 -7.5 118t-20.5 71.5t-31 35t-40 9.5q-21 0 -40.5 -10t-34 -36.5t-23 -73t-8.5 -118.5q0 -75 7.5 -126t21 -82t32 -44.5t41.5 -13.5q21 0 40 10.5t33 40t22 82.5t8 137zM244 -31q-46 20 -85 48.5t-67 74.5t-44 113t-16 165q0 92 19 160.5t53.5 113.5
t82.5 67.5t107 22.5q129 0 192.5 -87.5t63.5 -271.5q0 -77 -12.5 -132.5t-34 -94t-50 -60.5t-59.5 -32v-3q13 -5 33 -9t41.5 -8t42 -7t35.5 -4l-28 -139q-83 14 -152.5 37t-121.5 46z" />
    <glyph glyph-name="R" unicode="R" horiz-adv-x="535" 
d="M275 404q32 0 54.5 25t22.5 76q0 59 -21 79t-63 20h-62v-200h69zM527 0h-155l-104 287h-62v-287h-148v719h219q50 0 91.5 -11.5t71 -35.5t45.5 -61t16 -89q0 -78 -28 -126.5t-70 -74.5z" />
    <glyph glyph-name="S" unicode="S" horiz-adv-x="471" 
d="M63 177q42 -29 83 -44.5t74 -15.5q34 0 59 17t25 58q0 25 -9 43t-24.5 31.5t-35.5 24t-42 20.5q-30 13 -60 28.5t-55 39t-40.5 57t-15.5 84.5q0 47 15 86.5t43 68t68 44t90 15.5q54 0 92 -15.5t62.5 -41t38.5 -57t21 -63.5l-135 -41q-11 43 -33 64.5t-52 21.5
q-26 0 -44.5 -14t-18.5 -47q0 -20 8 -35t21.5 -27.5t31 -22.5t37.5 -20q30 -15 62 -32t58.5 -42.5t43.5 -62t17 -91.5q0 -52 -16 -93t-46 -69.5t-72 -44t-93 -15.5q-38 0 -69.5 6.5t-57 15.5t-45 19.5t-31.5 19.5z" />
    <glyph glyph-name="T" unicode="T" horiz-adv-x="501" 
d="M8 719h484v-120h-168v-599h-148v599h-168v120z" />
    <glyph glyph-name="U" unicode="U" horiz-adv-x="571" 
d="M203 241q0 -26 2.5 -49t11 -39.5t25 -26t45.5 -9.5t45 9.5t24 26.5t10 41t2 53v472h148v-483q0 -60 -10 -106t-36 -77.5t-71 -47.5t-115 -16q-68 0 -112 16t-70 47t-36.5 77.5t-10.5 107.5v482h148v-478z" />
    <glyph glyph-name="V" unicode="V" horiz-adv-x="547" 
d="M397 719h145l-178 -719h-185l-175 719h153l95 -421q8 -38 13 -73.5t9 -75.5h3q5 41 11 80.5t14 75.5z" />
    <glyph glyph-name="W" unicode="W" horiz-adv-x="714" 
d="M111 0l-95 719h144l37 -359q5 -44 6.5 -81t2.5 -55h2l93 430h116l88 -431h3q1 40 3.5 72t4.5 45l38 379h144l-96 -719h-138l-78 314q-5 21 -8.5 37t-6.5 31.5t-5.5 31t-5.5 34.5h-3q-3 -19 -6 -34l-6 -30t-7 -31t-9 -37l-80 -316h-138z" />
    <glyph glyph-name="X" unicode="X" horiz-adv-x="539" 
d="M350 359l178 -359h-163l-97 234l-97 -234h-171l187 365l-177 354h169l93 -231l99 231h168z" />
    <glyph glyph-name="Y" unicode="Y" horiz-adv-x="551" 
d="M390 719h161l-200 -439v-280h-148v279l-203 440h163l86 -221q11 -26 16.5 -45t12.5 -46h3q5 27 12 52t15 45z" />
    <glyph glyph-name="Z" unicode="Z" horiz-adv-x="500" 
d="M32 719h448v-104l-286 -497h276v-118h-453v95l288 508h-273v116z" />
    <glyph glyph-name="bracketleft" unicode="[" horiz-adv-x="288" 
d="M50 798h236v-95h-100v-746h100v-95h-236v936z" />
    <glyph glyph-name="backslash" unicode="\" horiz-adv-x="397" 
d="M0 746l122 43l272 -843l-121 -46z" />
    <glyph glyph-name="bracketright" unicode="]" horiz-adv-x="288" 
d="M238 -138h-236v95h100v746h-100v95h236v-936z" />
    <glyph glyph-name="asciicircum" unicode="^" horiz-adv-x="496" 
d="M329 282l-88 243l-88 -242l-117 19l160 389h91l160 -389z" />
    <glyph glyph-name="underscore" unicode="_" horiz-adv-x="425" 
d="M-5 -84h435v-104h-435v104z" />
    <glyph glyph-name="grave" unicode="`" 
d="M267 591l-180 99l54 91l171 -118z" />
    <glyph glyph-name="a" unicode="a" horiz-adv-x="464" 
d="M266 254q-7 4 -18 7t-27 3q-29 0 -45.5 -20t-16.5 -67q0 -36 11.5 -56.5t34.5 -20.5q18 0 34.5 11t26.5 25v118zM57 529q11 4 28.5 9t38.5 9.5t44 7.5t44 3q47 0 82 -10t58.5 -37t35.5 -75t12 -124v-178q0 -18 5.5 -29t19.5 -11q7 0 22 5l11 -93q-42 -17 -83 -17
q-67 0 -85 61q-19 -23 -50 -41.5t-80 -18.5q-35 0 -61.5 13.5t-43.5 36.5t-25.5 54.5t-8.5 67.5q0 95 43.5 143.5t132.5 48.5q20 0 36.5 -3t32.5 -8v17q0 47 -24 66t-57 19q-31 0 -61.5 -7.5t-53.5 -15.5z" />
    <glyph glyph-name="b" unicode="b" horiz-adv-x="470" 
d="M298 289q0 42 -3.5 71t-10 46t-17 24.5t-24.5 7.5q-20 0 -35.5 -10.5t-21.5 -17.5v-290q3 -4 13.5 -9.5t30.5 -5.5q40 0 54 48t14 136zM186 515q4 4 13.5 11.5t22.5 14.5t30 12t38 5q33 0 60.5 -13t48 -42t32 -75.5t11.5 -114.5q0 -72 -12.5 -131.5t-40 -102t-70.5 -66.5
t-103 -24q-49 0 -96 15t-75 32v683h141v-204z" />
    <glyph glyph-name="c" unicode="c" horiz-adv-x="403" 
d="M263 112q28 0 57 10.5t52 24.5l9 -123q-23 -13 -59 -24.5t-82 -11.5q-63 0 -104.5 24t-66 64t-34.5 91.5t-10 105.5q0 58 10 109.5t34 90.5t64 62t99 23q38 0 66.5 -12.5t49 -33.5t33 -50t17.5 -62l-116 -38q-6 32 -16 53.5t-37 21.5q-17 0 -27.5 -11.5t-17.5 -32.5
t-9.5 -49.5t-2.5 -61.5q0 -87 20 -128.5t71 -41.5z" />
    <glyph glyph-name="d" unicode="d" horiz-adv-x="475" 
d="M199 558q29 0 51 -9.5t36 -19.5v190h142v-719h-123l-5 44q-12 -18 -40.5 -36t-71.5 -18q-37 0 -67.5 16t-53 49.5t-35 86.5t-12.5 128q0 63 10.5 115.5t32.5 91t56 60t80 21.5zM167 275q0 -89 16.5 -128.5t49.5 -39.5q14 0 29 9t24 21v285q-11 10 -25.5 17t-28.5 7
q-12 0 -24 -7t-21 -25.5t-14.5 -52t-5.5 -86.5z" />
    <glyph glyph-name="e" unicode="e" horiz-adv-x="422" 
d="M219 449q-25 0 -38.5 -21t-13.5 -66v-26h101v23q0 53 -13.5 71.5t-35.5 18.5zM168 246q3 -70 24.5 -102t67.5 -32q32 0 60.5 8.5t61.5 29.5l7 -124q-24 -14 -62.5 -25.5t-80.5 -11.5q-65 0 -108 22t-68 61t-35 92t-10 116q0 78 15.5 131t42.5 85.5t63 47t77 14.5
q91 0 133.5 -61.5t42.5 -184.5v-66h-231z" />
    <glyph glyph-name="f" unicode="f" horiz-adv-x="313" 
d="M204 442v-442h-141v442h-63v107h63q0 20 3 46t8 43q16 49 54.5 72.5t104.5 23.5q29 0 59.5 -4.5t53.5 -13.5l-10 -109q-11 5 -34 10.5t-46 5.5q-33 0 -42.5 -18t-9.5 -56h106v-107h-106z" />
    <glyph glyph-name="g" unicode="g" horiz-adv-x="475" 
d="M167 269q0 -157 65 -157q14 0 29 9t25 21v274q-12 12 -26.5 20t-28.5 8t-25.5 -7t-20 -26.5t-13.5 -53.5t-5 -88zM190 558q18 0 34.5 -4.5t30.5 -11.5t25 -15t18 -15l7 37h123v-552q0 -47 -9.5 -87.5t-32 -71t-60 -48t-92.5 -17.5q-51 0 -97 12.5t-75 27.5l20 127
q29 -20 66 -31.5t65 -11.5q35 0 55.5 23t20.5 82v41q-11 -19 -37.5 -33.5t-64.5 -14.5q-36 0 -67 14.5t-53 47t-34.5 85t-12.5 128.5q0 62 10 114.5t31 91t53 60.5t76 22z" />
    <glyph glyph-name="h" unicode="h" horiz-adv-x="483" 
d="M315 558q54 0 83 -28t34 -80q1 -7 1.5 -17.5t1 -21.5t0.5 -21.5v-17.5v-372h-142v353v20t-1 25q-2 19 -12.5 27t-26.5 8q-13 0 -24 -5.5t-20 -11.5q-11 -7 -19 -16v-400h-143v719h143v-212q20 17 50 34t75 17z" />
    <glyph glyph-name="i" unicode="i" horiz-adv-x="236" 
d="M38 682q0 42 22.5 63.5t56.5 21.5q37 0 58.5 -21.5t21.5 -63.5q0 -43 -23 -64t-57 -21q-35 0 -57 22.5t-22 62.5zM189 549v-549h-142v549h142z" />
    <glyph glyph-name="j" unicode="j" horiz-adv-x="237" 
d="M38 681q0 42 22.5 64t56.5 22q37 0 58.5 -22t21.5 -64q0 -43 -23 -63.5t-57 -20.5q-35 0 -57 22t-22 62zM190 -66q0 -85 -37.5 -123t-121.5 -38q-32 0 -64 7t-57 21l21 119q23 -11 41 -14.5t32 -3.5q19 0 31 12t12 46v589h143v-615z" />
    <glyph glyph-name="k" unicode="k" horiz-adv-x="490" 
d="M345 317l145 -317h-159l-106 240h-35v-240h-143v719h143v-351h33l94 182l148 -17z" />
    <glyph glyph-name="l" unicode="l" horiz-adv-x="294" 
d="M43 719h142v-552q0 -27 8 -39.5t28 -12.5q11 0 24 3t27 10l16 -112q-28 -14 -56.5 -20.5t-54.5 -6.5q-40 0 -66 9.5t-41 28t-21 44.5t-6 59v589z" />
    <glyph glyph-name="m" unicode="m" horiz-adv-x="724" 
d="M304 558q39 0 64.5 -15.5t40.5 -42.5q29 26 62.5 42t74.5 16q63 0 92 -28.5t35 -75.5q2 -23 3 -45t1 -36v-373h-142v354v19.5t-2 25.5q-2 19 -12.5 26.5t-24.5 7.5q-18 0 -34 -9t-27 -20v-404h-142v354v20t-2 23q-2 20 -12.5 28t-24.5 8q-20 0 -37.5 -10.5t-26.5 -21.5
v-401h-143v549h124l6 -50q22 23 53.5 41t73.5 18z" />
    <glyph glyph-name="n" unicode="n" horiz-adv-x="483" 
d="M309 558q62 0 90 -31.5t33 -79.5q2 -14 2.5 -37.5t0.5 -37.5v-372h-142v353q0 7 0.5 19.5t-1.5 27.5q-2 17 -12.5 25t-26.5 8q-19 0 -35.5 -10.5t-27.5 -21.5v-401h-143v549h124l6 -50q24 23 57 41t75 18z" />
    <glyph glyph-name="o" unicode="o" horiz-adv-x="461" 
d="M230 106q35 0 47 41.5t12 126.5q0 81 -10.5 123.5t-45.5 42.5q-38 0 -49.5 -43t-11.5 -127q0 -88 11.5 -126t46.5 -38zM226 -13q-59 0 -97.5 21t-61.5 58.5t-32.5 89.5t-9.5 114q0 137 51 212.5t159 75.5q58 0 97 -20t61.5 -56.5t32 -87.5t9.5 -114q0 -64 -11 -118
t-35.5 -93t-64.5 -60.5t-98 -21.5z" />
    <glyph glyph-name="p" unicode="p" horiz-adv-x="471" 
d="M302 293q0 41 -3.5 68t-10.5 42.5t-17.5 22t-23.5 6.5q-20 0 -37 -11t-21 -17v-277q3 -5 15.5 -13t32.5 -8q19 0 31.5 13.5t20 38t10.5 59t3 76.5zM179 549l5 -43q17 18 42.5 35t66.5 17q33 0 61 -13.5t48 -42.5t31.5 -75.5t11.5 -112.5q0 -71 -9.5 -130t-29.5 -101.5
t-51 -66t-75 -23.5q-57 0 -93 34v-236h-140v758h132z" />
    <glyph glyph-name="q" unicode="q" horiz-adv-x="475" 
d="M194 558q34 0 61.5 -13t43.5 -31l7 35h122v-758h-137v251q-2 -4 -9 -12.5t-20 -17.5t-31.5 -15.5t-42.5 -6.5q-37 0 -67.5 15.5t-53 49t-35 87t-12.5 129.5q0 60 10.5 112.5t32 91.5t54.5 61t77 22zM167 270q0 -87 16.5 -125t49.5 -38q14 0 29 8t24 20v284q-8 8 -23.5 16
t-31.5 8q-12 0 -23.5 -5.5t-20.5 -24t-14.5 -52.5t-5.5 -91z" />
    <glyph glyph-name="r" unicode="r" horiz-adv-x="332" 
d="M273 558q17 0 37 -5t34 -16l-37 -132q0 -1 -12 6t-38 7q-20 0 -38 -12t-29 -26v-380h-143v549h124l8 -57q7 12 16.5 23.5t21.5 21t26 15.5t30 6z" />
    <glyph glyph-name="s" unicode="s" horiz-adv-x="398" 
d="M56 156q23 -19 58.5 -34.5t66.5 -15.5q23 0 38 12t15 37q0 22 -15.5 35.5t-38.5 24t-49.5 21.5t-49.5 29.5t-38.5 47t-15.5 74.5q0 40 14.5 71.5t39 53.5t57.5 34t70 12q44 0 75 -11.5t51 -29t31.5 -39t17.5 -40.5l-110 -49q-18 59 -61 59q-18 0 -30.5 -11t-12.5 -34
q0 -22 15.5 -35.5t38.5 -25.5t49.5 -24.5t49.5 -31.5t38.5 -48t15.5 -73q0 -84 -50 -130.5t-135 -46.5q-28 0 -54.5 5t-49.5 12.5t-41.5 17t-28.5 17.5z" />
    <glyph glyph-name="t" unicode="t" horiz-adv-x="321" 
d="M202 442v-259q0 -12 1.5 -24.5t5.5 -22t12 -16t20 -6.5q13 0 25 4t28 12l16 -114q-22 -12 -54 -19.5t-61 -7.5q-74 0 -105 43t-31 113v297h-59v107h59v90l143 71v-161h93v-107h-93z" />
    <glyph glyph-name="u" unicode="u" horiz-adv-x="481" 
d="M177 -10q-63 0 -92.5 29t-36.5 84q-2 14 -3 34t-1 34v362l144 16v-354v-20.5t1 -19.5q3 -25 13.5 -32.5t25.5 -7.5q19 0 35 11.5t29 25.5v397h142v-549h-124l-6 48q-23 -25 -54 -41.5t-73 -16.5z" />
    <glyph glyph-name="v" unicode="v" horiz-adv-x="449" 
d="M446 533l-132 -533h-171l-140 533l149 16l56 -290q7 -35 11 -71.5t7 -68.5h3q2 34 7.5 71t10.5 66l56 293z" />
    <glyph glyph-name="w" unicode="w" horiz-adv-x="611" 
d="M603 533l-94 -533h-149l-34 176q-5 34 -9.5 74t-8.5 75h-3q-9 -76 -23 -147l-38 -178h-143l-94 533l144 16l34 -265q3 -22 5.5 -54.5t4.5 -57.5h3q2 16 4.5 34.5t5.5 35.5t5 32t4 25l40 228h104l41 -228q2 -10 4.5 -26.5t5 -34.5t4.5 -36t3 -30h4q2 35 4.5 71t5.5 60
l32 246z" />
    <glyph glyph-name="x" unicode="x" horiz-adv-x="451" 
d="M307 275l144 -275h-152l-72 152l-70 -152h-157l145 270l-137 261l150 18l71 -161l80 161l142 -18z" />
    <glyph glyph-name="y" unicode="y" horiz-adv-x="449" 
d="M446 533q-16 -69 -34.5 -140t-37.5 -138.5t-38 -129.5t-37 -115t-38.5 -97t-46 -75.5t-58.5 -49.5t-77 -18q-45 0 -82.5 12.5t-61.5 27.5l36 119q28 -16 50.5 -23t42.5 -7q17 0 29.5 5t22 18t18.5 34.5t18 53.5l-148 523l145 16l79 -361h5q7 28 16.5 71t19.5 92t20 100.5
t18 97.5z" />
    <glyph glyph-name="z" unicode="z" horiz-adv-x="408" 
d="M187 110h196v-110h-365v95l198 346h-187v108h360v-88z" />
    <glyph glyph-name="braceleft" unicode="{" horiz-adv-x="316" 
d="M223 459q0 -90 -60 -122q60 -32 60 -122v-191q0 -61 41 -61q17 0 31 6l15 -95q-21 -10 -45 -14t-43 -4q-66 0 -97.5 46.5t-31.5 121.5v149q0 28 -2 50.5t-8.5 37.5t-19 23.5t-33.5 8.5v88q40 2 51.5 28.5t11.5 73.5v146q0 76 31.5 123t97.5 47q19 0 43 -4t45 -14l-15 -95
q-16 8 -31 8q-20 0 -30.5 -15t-10.5 -42v-178z" />
    <glyph glyph-name="bar" unicode="|" horiz-adv-x="222" 
d="M49 767h125v-885h-125v885z" />
    <glyph glyph-name="braceright" unicode="}" horiz-adv-x="316" 
d="M93 637q0 27 -10.5 42t-30.5 15q-15 0 -31 -8l-15 95q21 10 45 14t43 4q66 0 97.5 -47t31.5 -123v-146q0 -47 11.5 -73.5t51.5 -28.5v-88q-21 0 -33.5 -8.5t-19 -23.5t-8.5 -37.5t-2 -50.5v-149q0 -75 -31.5 -121.5t-97.5 -46.5q-19 0 -43 4t-45 14l15 95q13 -6 31 -6
q41 0 41 61v191q0 90 60 122q-60 32 -60 122v178z" />
    <glyph glyph-name="asciitilde" unicode="~" horiz-adv-x="540" 
d="M361 191q-31 0 -61.5 12t-58 26t-51.5 26t-42 12q-25 0 -43.5 -19.5t-38.5 -46.5l-82 68q13 22 29.5 43.5t36.5 39t43 28.5t49 11q27 0 55.5 -11.5t55 -25.5t50.5 -25.5t43 -11.5q21 0 39.5 15t39.5 47l83 -67q-12 -25 -28 -47t-34.5 -38.5t-40 -26t-44.5 -9.5z" />
    <glyph glyph-name="uni00A0" unicode="&#xa0;" horiz-adv-x="130" 
 />
    <glyph glyph-name="exclamdown" unicode="&#xa1;" horiz-adv-x="250" 
d="M194 480q0 -32 -17.5 -56t-51.5 -24q-33 0 -51 22t-18 57q0 33 17.5 56t50.5 23q32 0 51 -21.5t19 -56.5zM200 -170h-150l15 506h118z" />
    <glyph glyph-name="cent" unicode="&#xa2;" horiz-adv-x="467" 
d="M255 472q-29 0 -40.5 -37t-12.5 -109q-1 -69 9.5 -109.5t45.5 -40.5q23 0 36 21.5t20 56.5l116 -33q-8 -55 -36.5 -100t-78.5 -61v-97h-129v96q-72 25 -100.5 89.5t-28.5 173.5q0 103 28.5 172.5t99.5 93.5v87h130v-85q51 -16 78 -58.5t37 -91.5l-121 -42
q-5 27 -16.5 50.5t-36.5 23.5z" />
    <glyph glyph-name="sterling" unicode="&#xa3;" horiz-adv-x="483" 
d="M37 394h52q-9 29 -15 54.5t-6 55.5q0 43 13.5 79t39 61.5t62 39.5t83.5 14q44 0 76 -12.5t55.5 -34.5t38.5 -52.5t24 -67.5l-120 -43q-14 52 -34 70t-42 18q-25 0 -40.5 -16t-15.5 -52q0 -25 7 -53.5t18 -60.5h148v-99h-122q4 -17 7 -37.5t3 -42.5q0 -29 -8 -56t-26 -50
h230v-109h-407l-11 91q22 7 38.5 20.5t26.5 30t15 35t5 35.5q0 25 -4 45t-9 37h-82v100z" />
    <glyph glyph-name="currency" unicode="&#xa4;" horiz-adv-x="506" 
d="M253 222q57 0 88 40.5t31 102.5q0 30 -8 56.5t-23 46t-37.5 30.5t-50.5 11q-29 0 -51 -11t-37.5 -30.5t-23.5 -46t-8 -56.5q0 -31 8 -57t23.5 -45t37.5 -30t51 -11zM19 168l69 71q-38 55 -38 126t38 124l-69 71l45 43l67 -69q24 18 54.5 29t67.5 11q36 0 67 -11t55 -29
l67 69l45 -43l-69 -71q37 -54 37 -124q0 -35 -10 -67t-28 -58l70 -72l-45 -43l-68 69q-49 -37 -121 -37t-121 37l-68 -69z" />
    <glyph glyph-name="yen" unicode="&#xa5;" horiz-adv-x="508" 
d="M344 685h159l-131 -311h77v-127h-121v-247h-146v247h-119v127h73l-131 311h159l92 -273z" />
    <glyph glyph-name="brokenbar" unicode="&#xa6;" horiz-adv-x="223" 
d="M49 283h126v-401h-126v401zM49 767h126v-366h-126v366z" />
    <glyph glyph-name="section" unicode="&#xa7;" horiz-adv-x="501" 
d="M151 575q-6 -18 -11.5 -38.5t-5.5 -49.5q0 -39 15.5 -76.5t38.5 -74.5t49.5 -74t49.5 -75t38.5 -78.5t15.5 -83.5v-29t-1 -20h7q5 10 9 23.5t6.5 27.5t4 27.5t1.5 23.5q0 50 -16 94t-39.5 84t-51 78t-51 77t-39.5 79t-16 85h-4zM115 16q17 -37 41 -54.5t50 -17.5
q22 0 38 12t16 38q0 19 -6 38.5t-19 43.5t-34 56t-52 77q-24 35 -44 66.5t-34.5 63t-22.5 65t-8 71.5q0 56 16.5 103t46.5 80.5t72.5 52.5t95.5 19q47 0 81 -13.5t58 -35t38.5 -48.5t22.5 -54l-101 -42q-17 42 -33.5 56t-39.5 14q-17 0 -30.5 -12.5t-13.5 -34.5
q0 -29 16 -56t44 -69q24 -34 50.5 -70.5t48 -77.5t35.5 -87.5t14 -98.5q0 -62 -17 -113.5t-48 -89t-75 -58.5t-98 -21q-46 0 -81 14t-60.5 35t-41.5 46t-25 48z" />
    <glyph glyph-name="dieresis" unicode="&#xa8;" 
d="M221 685q0 35 18.5 54.5t47.5 19.5q69 0 69 -74q0 -36 -19.5 -55.5t-49.5 -19.5t-48 20t-18 55zM44 685q0 35 18.5 54.5t47.5 19.5q69 0 69 -74q0 -36 -19.5 -55.5t-49.5 -19.5t-48 20t-18 55z" />
    <glyph glyph-name="copyright" unicode="&#xa9;" horiz-adv-x="748" 
d="M621 353q0 66 -19 121t-52.5 94.5t-79.5 61.5t-100 22q-56 0 -100.5 -22t-76.5 -61.5t-49 -94.5t-17 -121t18 -120.5t50 -93.5t77 -60.5t98 -21.5q55 0 101 21t79.5 59.5t52 93t18.5 122.5zM701 359q0 -83 -24.5 -153t-68.5 -120t-105 -78t-134 -28q-75 0 -135 28
t-101.5 77.5t-64 118t-22.5 149.5t24 150t66.5 119.5t102 79t130.5 28.5q73 0 134.5 -28.5t105 -78.5t68 -117.5t24.5 -146.5zM457 448q-12 20 -30.5 37.5t-47.5 17.5q-45 0 -68 -38t-23 -109q0 -75 26 -112t66 -37q44 0 83 46l51 -50q-26 -32 -60.5 -52t-76.5 -20
q-48 0 -81 21t-52.5 53t-28 71.5t-8.5 76.5q0 55 13.5 97.5t37 71.5t54.5 44t67 15q49 0 86 -25.5t57 -71.5z" />
    <glyph glyph-name="ordfeminine" unicode="&#xaa;" horiz-adv-x="342" 
d="M200 508q-14 7 -30 7q-20 0 -31.5 -12.5t-11.5 -42.5q0 -47 32 -47q12 0 23.5 7.5t17.5 17.5v70zM49 703q8 3 21 6t29 5.5t32 4t30 1.5q34 0 60.5 -6t44.5 -24t27.5 -50.5t9.5 -84.5v-219h-90l-7 31q-12 -15 -33.5 -26t-51.5 -11q-51 0 -75.5 34.5t-24.5 83.5
q0 68 31.5 100t96.5 32q14 0 25.5 -1.5t25.5 -4.5v10q0 32 -16.5 42t-41.5 10q-21 0 -44.5 -4.5t-40.5 -10.5z" />
    <glyph glyph-name="guillemotleft" unicode="&#xab;" horiz-adv-x="535" 
d="M444 63l-190 220l181 216l88 -76l-116 -138l123 -144zM204 63l-190 220l181 216l88 -76l-116 -138l123 -144z" />
    <glyph glyph-name="logicalnot" unicode="&#xac;" horiz-adv-x="500" 
d="M333 274h-278v122h389v-275h-111v153z" />
    <glyph glyph-name="uni00AD" unicode="&#xad;" horiz-adv-x="328" 
d="M36 362h256v-116h-256v116z" />
    <glyph glyph-name="registered" unicode="&#xae;" horiz-adv-x="494" 
d="M239 552q22 0 34 6.5t12 26.5q0 17 -11 22.5t-34 5.5h-23v-61h22zM330 437h-44l-37 84h-32v-84h-42v208h80q33 0 52.5 -13t19.5 -45q0 -22 -11.5 -37t-26.5 -22zM392 538q0 32 -11 59t-30.5 46.5t-46.5 30t-59 10.5q-66 0 -104.5 -40.5t-38.5 -105.5q0 -32 10.5 -59
t29.5 -46t45.5 -29.5t57.5 -10.5q65 0 106 39t41 106zM444 541q0 -42 -14.5 -78t-40.5 -61.5t-62.5 -40t-81.5 -14.5q-46 0 -82.5 14.5t-61.5 40t-38 60.5t-13 76q0 42 14.5 77t40 61t61.5 40.5t79 14.5q44 0 80.5 -14.5t63 -40t41 -60.5t14.5 -75z" />
    <glyph glyph-name="macron" unicode="&#xaf;" 
d="M71 732h257v-105h-257v105z" />
    <glyph glyph-name="degree" unicode="&#xb0;" horiz-adv-x="336" 
d="M127 596q0 -24 10.5 -41t30.5 -17t30.5 17.5t10.5 40.5q0 26 -10.5 42t-30.5 16q-22 0 -31.5 -16t-9.5 -42zM60 596q0 27 8.5 50.5t23 40.5t34 27t42.5 10q25 0 45 -10t34 -26.5t21.5 -39t7.5 -46.5q0 -28 -8 -52.5t-23 -42.5t-35.5 -28t-44.5 -10q-25 0 -44.5 10
t-33 27.5t-20.5 40.5t-7 49z" />
    <glyph glyph-name="plusminus" unicode="&#xb1;" horiz-adv-x="500" 
d="M193 584h118v-176h143v-124h-143v-161h143v-123h-408v123h147v161h-146v124h146v176z" />
    <glyph glyph-name="uni00B2" unicode="&#xb2;" horiz-adv-x="340" 
d="M29 726q17 42 53.5 71t92.5 29q57 0 93 -32.5t36 -94.5q0 -39 -13 -65.5t-31 -53.5q-23 -31 -43 -53.5t-41 -45.5h132v-92h-264v80l31.5 31.5t26 27.5t26 30.5t30.5 40.5q42 52 42 92q0 16 -9 27.5t-28 11.5t-32.5 -13t-25.5 -35z" />
    <glyph glyph-name="uni00B3" unicode="&#xb3;" horiz-adv-x="340" 
d="M31 741q21 38 55 61.5t84 23.5q54 0 90 -27.5t36 -81.5q0 -38 -19.5 -66.5t-42.5 -39.5q29 -9 48 -31.5t19 -61.5q0 -60 -38 -98.5t-110 -38.5q-39 0 -70 12.5t-53 29.5l38 82q20 -18 42 -25.5t38 -7.5q50 0 50 49q0 48 -53 48h-37v72h33q30 0 43.5 14.5t13.5 39.5
q0 23 -12.5 32t-26.5 9q-17 0 -32 -11t-27 -31z" />
    <glyph glyph-name="acute" unicode="&#xb4;" 
d="M88 664l172 118l51 -93l-180 -98z" />
    <glyph glyph-name="mu" unicode="&#xb5;" horiz-adv-x="520" 
d="M426 -13q-32 0 -55 19t-31 49q-14 -29 -36.5 -48t-56.5 -19q-26 0 -43 15t-24 33v-245h-133v758h140v-363q0 -92 56 -92q30 0 47.5 29t17.5 75v351h141v-419q0 -42 24 -42q4 0 9.5 1t10.5 3l5 -90q-21 -8 -36.5 -11.5t-35.5 -3.5z" />
    <glyph glyph-name="paragraph" unicode="&#xb6;" horiz-adv-x="537" 
d="M270 286q-45 0 -84.5 12t-69 38t-46.5 67t-17 100q0 60 19 101.5t50 67t70 36.5t78 11h226l-8 -142h-65v-536q0 -46 -10 -86.5t-34 -70.5t-63.5 -47.5t-97.5 -17.5q-47 0 -88.5 11t-71.5 25l37 142q25 -14 51.5 -20t52.5 -6q32 0 51.5 18.5t19.5 70.5v226z" />
    <glyph glyph-name="periodcentered" unicode="&#xb7;" horiz-adv-x="288" 
d="M70 350q0 34 19.5 60t54.5 26t54.5 -23.5t19.5 -61.5q0 -35 -20.5 -60t-55.5 -25q-34 0 -53 23.5t-19 60.5z" />
    <glyph glyph-name="cedilla" unicode="&#xb8;" 
d="M137 -56q15 5 29 7t34 2q45 0 67 -27.5t22 -64.5q0 -35 -11 -59t-29 -38.5t-39.5 -21t-42.5 -6.5q-16 0 -28.5 2t-27.5 7l12 68q21 -7 41 -7q17 0 29.5 11.5t12.5 33.5t-12 27.5t-21 5.5q-12 0 -36 -6v66z" />
    <glyph glyph-name="uni00B9" unicode="&#xb9;" horiz-adv-x="340" 
d="M47 472h68v265h-63v82h170v-347h70v-81h-245v81z" />
    <glyph glyph-name="ordmasculine" unicode="&#xba;" horiz-adv-x="348" 
d="M173 416q25 0 33.5 28.5t8.5 85.5q0 50 -7 77.5t-33 27.5t-34.5 -29.5t-8.5 -81.5q0 -58 8.5 -83t32.5 -25zM170 330q-43 0 -71.5 16t-46 43t-24.5 62.5t-7 74.5q0 89 37.5 141.5t118.5 52.5q44 0 73 -14t46 -39t24 -59.5t7 -75.5q0 -42 -8 -78.5t-27 -64t-49 -43.5
t-73 -16z" />
    <glyph glyph-name="guillemotright" unicode="&#xbb;" horiz-adv-x="535" 
d="M258 141l123 144l-116 138l88 76l181 -216l-190 -220zM9 141l123 144l-116 138l88 76l181 -216l-190 -220z" />
    <glyph glyph-name="onequarter" unicode="&#xbc;" horiz-adv-x="825" 
d="M60 372h68v265h-63v82h170v-347h70v-81h-245v81zM234 0l233 719h125l-234 -719h-124zM624 169v93q0 19 0.5 38.5t2.5 36.5h-5q-4 -11 -10.5 -28.5t-14.5 -32.5l-53 -107h80zM624 0v93h-167v60l146 277h121v-261h45v-77h-45v-92h-100z" />
    <glyph glyph-name="onehalf" unicode="&#xbd;" horiz-adv-x="825" 
d="M493 337q17 42 53.5 71t92.5 29q57 0 93 -32.5t36 -94.5q0 -39 -13 -65.5t-31 -53.5q-23 -31 -43 -53.5t-41 -45.5h132v-92h-264v80l31.5 31.5t26 27.5t26 30.5t30.5 40.5q42 52 42 92q0 16 -9 27.5t-28 11.5t-32.5 -13t-25.5 -35zM50 372h68v265h-63v82h170v-347h70v-81
h-245v81zM224 0l233 719h125l-234 -719h-124z" />
    <glyph glyph-name="threequarters" unicode="&#xbe;" horiz-adv-x="825" 
d="M228 0l233 719h125l-234 -719h-124zM618 169v93q0 19 0.5 38.5t2.5 36.5h-5q-4 -11 -10.5 -28.5t-14.5 -32.5l-53 -107h80zM618 0v93h-167v60l146 277h121v-261h45v-77h-45v-92h-100zM51 641q21 38 55 61.5t84 23.5q54 0 90 -27.5t36 -81.5q0 -38 -19.5 -66.5
t-42.5 -39.5q29 -9 48 -31.5t19 -61.5q0 -60 -38 -98.5t-110 -38.5q-39 0 -70 12.5t-53 29.5l38 82q20 -18 42 -25.5t38 -7.5q50 0 50 49q0 48 -53 48h-37v72h33q30 0 43.5 14.5t13.5 39.5q0 23 -12.5 32t-26.5 9q-17 0 -32 -11t-27 -31z" />
    <glyph glyph-name="questiondown" unicode="&#xbf;" horiz-adv-x="385" 
d="M327 480q0 -32 -18 -56t-51 -24q-34 0 -52 22t-18 57q0 33 17.5 56t51.5 23q32 0 51 -21.5t19 -56.5zM331 149q-43 -5 -71.5 -16t-46 -27t-25 -37.5t-7.5 -46.5q0 -40 22 -57.5t56 -17.5q40 0 84 12l16 -115q-25 -7 -58 -11t-59 -4q-101 0 -153.5 49.5t-52.5 146.5
q0 68 35.5 122.5t115.5 78.5v111h144v-188z" />
    <glyph glyph-name="Agrave" unicode="&#xc0;" horiz-adv-x="544" 
d="M212 280h111l-36 176q-5 28 -10.5 65t-8.5 67h-3q-2 -29 -7 -64t-10 -67zM1 0l177 719h180l185 -719h-150l-43 170h-164l-38 -170h-147zM329 766l-185 59l35 103l181 -80z" />
    <glyph glyph-name="Aacute" unicode="&#xc1;" horiz-adv-x="544" 
d="M212 280h111l-36 176q-5 28 -10.5 65t-8.5 67h-3q-2 -29 -7 -64t-10 -67zM1 0l177 719h180l185 -719h-150l-43 170h-164l-38 -170h-147zM165 848l180 80l37 -102l-186 -59z" />
    <glyph glyph-name="Acircumflex" unicode="&#xc2;" horiz-adv-x="544" 
d="M212 280h111l-36 176q-5 28 -10.5 65t-8.5 67h-3q-2 -29 -7 -64t-10 -67zM1 0l177 719h180l185 -719h-150l-43 170h-164l-38 -170h-147zM323 918l85 -109l-56 -50l-85 69l-87 -69l-55 54l92 105h106z" />
    <glyph glyph-name="Atilde" unicode="&#xc3;" horiz-adv-x="544" 
d="M212 280h111l-36 176q-5 28 -10.5 65t-8.5 67h-3q-2 -29 -7 -64t-10 -67zM1 0l177 719h180l185 -719h-150l-43 170h-164l-38 -170h-147zM138 878q12 13 36 24t45 11q15 0 28.5 -4.5t27 -9.5t27 -9.5t28.5 -4.5t30 5.5t26 14.5l8 -102q-14 -10 -31 -13.5t-30 -3.5
q-15 0 -29.5 3.5t-28.5 8t-27 8t-24 3.5q-14 0 -34 -7t-36 -20z" />
    <glyph glyph-name="Adieresis" unicode="&#xc4;" horiz-adv-x="544" 
d="M212 280h111l-36 176q-5 28 -10.5 65t-8.5 67h-3q-2 -29 -7 -64t-10 -67zM1 0l177 719h180l185 -719h-150l-43 170h-164l-38 -170h-147zM290 847q0 35 18.5 54.5t47.5 19.5q69 0 69 -74q0 -36 -19.5 -55.5t-49.5 -19.5t-48 20t-18 55zM113 847q0 35 18.5 54.5t47.5 19.5
q69 0 69 -74q0 -36 -19.5 -55.5t-49.5 -19.5t-48 20t-18 55z" />
    <glyph glyph-name="Aring" unicode="&#xc5;" horiz-adv-x="544" 
d="M212 280h111l-36 176q-5 28 -10.5 65t-8.5 67h-3q-2 -29 -7 -64t-10 -67zM1 0l177 719h180l185 -719h-150l-43 170h-164l-38 -170h-147zM230 791q0 -24 10 -40.5t30 -16.5t30 17t10 40q0 24 -10 40t-30 16q-21 0 -30.5 -16t-9.5 -40zM161 791q0 26 8 48.5t22.5 39
t34.5 26t44 9.5q26 0 46 -9.5t34 -26t21.5 -37.5t7.5 -45q0 -55 -31 -92t-81 -37q-51 0 -78.5 36.5t-27.5 87.5z" />
    <glyph glyph-name="AE" unicode="&#xc6;" horiz-adv-x="773" 
d="M244 295h103v319h-4q-6 -26 -16 -61t-21 -67zM347 180h-138l-61 -180h-146l256 719h479v-120h-244v-172h212v-120h-212v-186h253v-121h-399v180z" />
    <glyph glyph-name="Ccedilla" unicode="&#xc7;" horiz-adv-x="517" 
d="M214 -56q15 5 29 7t34 2q45 0 67 -27.5t22 -64.5q0 -35 -11 -59t-29 -38.5t-39.5 -21t-42.5 -6.5q-16 0 -28.5 2t-27.5 7l12 68q21 -7 41 -7q17 0 29.5 12t12.5 35q0 20 -12 25.5t-21 5.5q-12 0 -36 -6v66zM489 39q-34 -20 -81 -36.5t-110 -16.5q-79 0 -130.5 28.5
t-81.5 78t-42 116.5t-12 145q0 79 12 148.5t41.5 121t78.5 81t124 29.5q57 0 95.5 -17.5t63 -46t37.5 -64t19 -70.5l-139 -36q-9 52 -28 82t-52 30q-32 0 -51 -21t-29 -55t-13 -77.5t-3 -88.5q0 -131 29 -192.5t105 -61.5q38 0 72.5 13.5t69.5 36.5z" />
    <glyph glyph-name="Egrave" unicode="&#xc8;" horiz-adv-x="485" 
d="M58 719h392v-120h-244v-172h212v-120h-212v-186h253v-121h-401v719zM327 766l-185 59l35 103l181 -80z" />
    <glyph glyph-name="Eacute" unicode="&#xc9;" horiz-adv-x="485" 
d="M58 719h392v-120h-244v-172h212v-120h-212v-186h253v-121h-401v719zM155 848l180 80l37 -102l-186 -59z" />
    <glyph glyph-name="Ecircumflex" unicode="&#xca;" horiz-adv-x="485" 
d="M58 719h392v-120h-244v-172h212v-120h-212v-186h253v-121h-401v719zM310 918l85 -109l-56 -50l-85 69l-87 -69l-55 54l92 105h106z" />
    <glyph glyph-name="Edieresis" unicode="&#xcb;" horiz-adv-x="485" 
d="M58 719h392v-120h-244v-172h212v-120h-212v-186h253v-121h-401v719zM274 847q0 35 18.5 54.5t47.5 19.5q69 0 69 -74q0 -36 -19.5 -55.5t-49.5 -19.5t-48 20t-18 55zM97 847q0 35 18.5 54.5t47.5 19.5q69 0 69 -74q0 -36 -19.5 -55.5t-49.5 -19.5t-48 20t-18 55z" />
    <glyph glyph-name="Igrave" unicode="&#xcc;" horiz-adv-x="265" 
d="M206 719v-719h-148v719h148zM209 766l-185 59l35 103l181 -80z" />
    <glyph glyph-name="Iacute" unicode="&#xcd;" horiz-adv-x="265" 
d="M206 719v-719h-148v719h148zM27 848l180 80l37 -102l-186 -59z" />
    <glyph glyph-name="Icircumflex" unicode="&#xce;" horiz-adv-x="265" 
d="M206 719v-719h-148v719h148zM189 918l85 -109l-56 -50l-85 69l-87 -69l-55 54l92 105h106z" />
    <glyph glyph-name="Idieresis" unicode="&#xcf;" horiz-adv-x="265" 
d="M206 719v-719h-148v719h148zM153 847q0 35 18.5 54.5t47.5 19.5q69 0 69 -74q0 -36 -19.5 -55.5t-49.5 -19.5t-48 20t-18 55zM-24 847q0 35 18.5 54.5t47.5 19.5q69 0 69 -74q0 -36 -19.5 -55.5t-49.5 -19.5t-48 20t-18 55z" />
    <glyph glyph-name="Eth" unicode="&#xd0;" horiz-adv-x="577" 
d="M226 417h76v-115h-76v-188h43q31 0 53.5 13.5t37.5 44.5t22.5 80.5t7.5 121.5q0 64 -6.5 108t-20 71t-34.5 39t-49 12h-54v-187zM22 417h56v302h210q55 0 102 -16t81.5 -54t54.5 -101t20 -158q0 -118 -22.5 -194t-61 -119.5t-89 -60t-106.5 -16.5h-189v302h-56v115z" />
    <glyph glyph-name="Ntilde" unicode="&#xd1;" horiz-adv-x="591" 
d="M532 719v-719h-128l-157 341q-17 35 -26 67.5t-21 73.5l-3 -1q3 -39 5 -70.5t2 -73.5v-337h-146v719h137l152 -349q15 -35 25.5 -66t21.5 -66l3 1q-5 37 -8 68t-3 69v343h146zM156 878q12 13 36 24t45 11q15 0 28.5 -4.5t27 -9.5t27 -9.5t28.5 -4.5t30 5.5t26 14.5
l8 -102q-14 -10 -31 -13.5t-30 -3.5q-15 0 -29.5 3.5t-28.5 8t-27 8t-24 3.5q-14 0 -34 -7t-36 -20z" />
    <glyph glyph-name="Ograve" unicode="&#xd2;" horiz-adv-x="583" 
d="M394 374q0 72 -7.5 117.5t-21 71t-31.5 35t-40 9.5q-21 0 -40.5 -10t-34 -36.5t-23 -73t-8.5 -118.5q0 -75 7 -124.5t20 -79.5t32 -42.5t43 -12.5q22 0 41 9.5t33 38t22 80.5t8 136zM288 -14q-55 0 -101.5 17t-81 60.5t-54 118t-19.5 188.5q0 92 19 160.5t53.5 113.5
t84 67.5t109.5 22.5q127 0 189.5 -87.5t62.5 -271.5q0 -114 -19.5 -189t-54.5 -119.5t-83 -62.5t-105 -18zM378 766l-185 59l35 103l181 -80z" />
    <glyph glyph-name="Oacute" unicode="&#xd3;" horiz-adv-x="583" 
d="M394 374q0 72 -7.5 117.5t-21 71t-31.5 35t-40 9.5q-21 0 -40.5 -10t-34 -36.5t-23 -73t-8.5 -118.5q0 -75 7 -124.5t20 -79.5t32 -42.5t43 -12.5q22 0 41 9.5t33 38t22 80.5t8 136zM288 -14q-55 0 -101.5 17t-81 60.5t-54 118t-19.5 188.5q0 92 19 160.5t53.5 113.5
t84 67.5t109.5 22.5q127 0 189.5 -87.5t62.5 -271.5q0 -114 -19.5 -189t-54.5 -119.5t-83 -62.5t-105 -18zM207 848l180 80l37 -102l-186 -59z" />
    <glyph glyph-name="Ocircumflex" unicode="&#xd4;" horiz-adv-x="583" 
d="M394 374q0 72 -7.5 117.5t-21 71t-31.5 35t-40 9.5q-21 0 -40.5 -10t-34 -36.5t-23 -73t-8.5 -118.5q0 -75 7 -124.5t20 -79.5t32 -42.5t43 -12.5q22 0 41 9.5t33 38t22 80.5t8 136zM288 -14q-55 0 -101.5 17t-81 60.5t-54 118t-19.5 188.5q0 92 19 160.5t53.5 113.5
t84 67.5t109.5 22.5q127 0 189.5 -87.5t62.5 -271.5q0 -114 -19.5 -189t-54.5 -119.5t-83 -62.5t-105 -18zM353 918l85 -109l-56 -50l-85 69l-87 -69l-55 54l92 105h106z" />
    <glyph glyph-name="Otilde" unicode="&#xd5;" horiz-adv-x="583" 
d="M394 374q0 72 -7.5 117.5t-21 71t-31.5 35t-40 9.5q-21 0 -40.5 -10t-34 -36.5t-23 -73t-8.5 -118.5q0 -75 7 -124.5t20 -79.5t32 -42.5t43 -12.5q22 0 41 9.5t33 38t22 80.5t8 136zM288 -14q-55 0 -101.5 17t-81 60.5t-54 118t-19.5 188.5q0 92 19 160.5t53.5 113.5
t84 67.5t109.5 22.5q127 0 189.5 -87.5t62.5 -271.5q0 -114 -19.5 -189t-54.5 -119.5t-83 -62.5t-105 -18zM169 878q12 13 36 24t45 11q15 0 28.5 -4.5t27 -9.5t27 -9.5t28.5 -4.5t30 5.5t26 14.5l8 -102q-14 -10 -31 -13.5t-30 -3.5q-15 0 -29.5 3.5t-28.5 8t-27 8t-24 3.5
q-14 0 -34 -7t-36 -20z" />
    <glyph glyph-name="Odieresis" unicode="&#xd6;" horiz-adv-x="583" 
d="M394 374q0 72 -7.5 117.5t-21 71t-31.5 35t-40 9.5q-21 0 -40.5 -10t-34 -36.5t-23 -73t-8.5 -118.5q0 -75 7 -124.5t20 -79.5t32 -42.5t43 -12.5q22 0 41 9.5t33 38t22 80.5t8 136zM288 -14q-55 0 -101.5 17t-81 60.5t-54 118t-19.5 188.5q0 92 19 160.5t53.5 113.5
t84 67.5t109.5 22.5q127 0 189.5 -87.5t62.5 -271.5q0 -114 -19.5 -189t-54.5 -119.5t-83 -62.5t-105 -18zM322 847q0 35 18.5 54.5t47.5 19.5q69 0 69 -74q0 -36 -19.5 -55.5t-49.5 -19.5t-48 20t-18 55zM145 847q0 35 18.5 54.5t47.5 19.5q69 0 69 -74q0 -36 -19.5 -55.5
t-49.5 -19.5t-48 20t-18 55z" />
    <glyph glyph-name="multiply" unicode="&#xd7;" horiz-adv-x="500" 
d="M155 315l-137 168l95 88l135 -168l143 169l93 -85l-146 -171l146 -170l-93 -86l-145 169l-137 -164l-93 84z" />
    <glyph glyph-name="Oslash" unicode="&#xd8;" horiz-adv-x="582" 
d="M394 374q0 35 -2 63.5t-5 51.5l-132 -371q15 -8 35 -8q22 0 41 9.5t33 38t22 80.5t8 136zM188 369q0 -48 3 -84t8 -65l133 378q-18 9 -38 9q-21 0 -40.5 -10t-34 -36.5t-23 -73t-8.5 -118.5zM288 -14q-42 0 -78 10l-35 -91l-92 37l40 102q-42 42 -66.5 119.5t-24.5 206.5
q0 92 19 160.5t53.5 113.5t84 67.5t109.5 22.5q44 0 82 -11l33 81l92 -37l-38 -96q42 -44 62.5 -117t20.5 -179q0 -114 -19.5 -189t-54.5 -119.5t-83 -62.5t-105 -18z" />
    <glyph glyph-name="Ugrave" unicode="&#xd9;" horiz-adv-x="571" 
d="M203 241q0 -26 2.5 -49t11 -39.5t25 -26t45.5 -9.5t45 9.5t24 26.5t10 41t2 53v472h148v-483q0 -60 -10 -106t-36 -77.5t-71 -47.5t-115 -16q-68 0 -112 16t-70 47t-36.5 77.5t-10.5 107.5v482h148v-478zM367 766l-185 59l35 103l181 -80z" />
    <glyph glyph-name="Uacute" unicode="&#xda;" horiz-adv-x="571" 
d="M203 241q0 -26 2.5 -49t11 -39.5t25 -26t45.5 -9.5t45 9.5t24 26.5t10 41t2 53v472h148v-483q0 -60 -10 -106t-36 -77.5t-71 -47.5t-115 -16q-68 0 -112 16t-70 47t-36.5 77.5t-10.5 107.5v482h148v-478zM183 848l180 80l37 -102l-186 -59z" />
    <glyph glyph-name="Ucircumflex" unicode="&#xdb;" horiz-adv-x="571" 
d="M203 241q0 -26 2.5 -49t11 -39.5t25 -26t45.5 -9.5t45 9.5t24 26.5t10 41t2 53v472h148v-483q0 -60 -10 -106t-36 -77.5t-71 -47.5t-115 -16q-68 0 -112 16t-70 47t-36.5 77.5t-10.5 107.5v482h148v-478zM343 918l85 -109l-56 -50l-85 69l-87 -69l-55 54l92 105h106z" />
    <glyph glyph-name="Udieresis" unicode="&#xdc;" horiz-adv-x="571" 
d="M203 241q0 -26 2.5 -49t11 -39.5t25 -26t45.5 -9.5t45 9.5t24 26.5t10 41t2 53v472h148v-483q0 -60 -10 -106t-36 -77.5t-71 -47.5t-115 -16q-68 0 -112 16t-70 47t-36.5 77.5t-10.5 107.5v482h148v-478zM305 847q0 35 18.5 54.5t47.5 19.5q69 0 69 -74
q0 -36 -19.5 -55.5t-49.5 -19.5t-48 20t-18 55zM128 847q0 35 18.5 54.5t47.5 19.5q69 0 69 -74q0 -36 -19.5 -55.5t-49.5 -19.5t-48 20t-18 55z" />
    <glyph glyph-name="Yacute" unicode="&#xdd;" horiz-adv-x="551" 
d="M390 719h161l-200 -439v-280h-148v279l-203 440h163l86 -221q11 -26 16.5 -45t12.5 -46h3q5 27 12 52t15 45zM176 848l180 80l37 -102l-186 -59z" />
    <glyph glyph-name="Thorn" unicode="&#xde;" horiz-adv-x="518" 
d="M254 271q93 0 93 123q0 57 -23 79t-61 22h-57v-224h48zM206 155v-155h-148v719h147v-108h76q103 0 160.5 -52.5t57.5 -154.5q0 -57 -16 -103.5t-45.5 -78.5t-71.5 -49.5t-95 -17.5h-65z" />
    <glyph glyph-name="germandbls" unicode="&#xdf;" horiz-adv-x="542" 
d="M259 126q14 -10 33.5 -15t40.5 -5q18 0 35 12t17 40q0 17 -5.5 29.5t-15 23t-21.5 20.5t-25 22q-14 13 -28 25.5t-24.5 27.5t-17 34t-6.5 45q0 25 8 44.5t21 34t29 23.5t33 14v40q0 42 -18.5 59t-50.5 17q-42 0 -59 -24.5t-17 -65.5v-527h-141v517q0 58 16 98t44.5 65
t68 36t87.5 11q58 0 97.5 -14.5t64 -43.5t35.5 -74t11 -105v-65h-56q-38 0 -38 -34q0 -19 22 -37.5t49 -43t49 -59t22 -85.5q0 -32 -10.5 -63t-31.5 -56.5t-53 -41t-76 -15.5q-35 0 -64 8t-49 19z" />
    <glyph glyph-name="agrave" unicode="&#xe0;" horiz-adv-x="464" 
d="M266 254q-7 4 -18 7t-27 3q-29 0 -45.5 -20t-16.5 -67q0 -36 11.5 -56.5t34.5 -20.5q18 0 34.5 11t26.5 25v118zM57 529q11 4 28.5 9t38.5 9.5t44 7.5t44 3q47 0 82 -10t58.5 -37t35.5 -75t12 -124v-178q0 -18 5.5 -29t19.5 -11q7 0 22 5l11 -93q-42 -17 -83 -17
q-67 0 -85 61q-19 -23 -50 -41.5t-80 -18.5q-35 0 -61.5 13.5t-43.5 36.5t-25.5 54.5t-8.5 67.5q0 95 43.5 143.5t132.5 48.5q20 0 36.5 -3t32.5 -8v17q0 47 -24 66t-57 19q-31 0 -61.5 -7.5t-53.5 -15.5zM274 591l-180 99l54 91l171 -118z" />
    <glyph glyph-name="aacute" unicode="&#xe1;" horiz-adv-x="464" 
d="M266 254q-7 4 -18 7t-27 3q-29 0 -45.5 -20t-16.5 -67q0 -36 11.5 -56.5t34.5 -20.5q18 0 34.5 11t26.5 25v118zM57 529q11 4 28.5 9t38.5 9.5t44 7.5t44 3q47 0 82 -10t58.5 -37t35.5 -75t12 -124v-178q0 -18 5.5 -29t19.5 -11q7 0 22 5l11 -93q-42 -17 -83 -17
q-67 0 -85 61q-19 -23 -50 -41.5t-80 -18.5q-35 0 -61.5 13.5t-43.5 36.5t-25.5 54.5t-8.5 67.5q0 95 43.5 143.5t132.5 48.5q20 0 36.5 -3t32.5 -8v17q0 47 -24 66t-57 19q-31 0 -61.5 -7.5t-53.5 -15.5zM128 664l172 118l51 -93l-180 -98z" />
    <glyph glyph-name="acircumflex" unicode="&#xe2;" horiz-adv-x="464" 
d="M266 254q-7 4 -18 7t-27 3q-29 0 -45.5 -20t-16.5 -67q0 -36 11.5 -56.5t34.5 -20.5q18 0 34.5 11t26.5 25v118zM57 529q11 4 28.5 9t38.5 9.5t44 7.5t44 3q47 0 82 -10t58.5 -37t35.5 -75t12 -124v-178q0 -18 5.5 -29t19.5 -11q7 0 22 5l11 -93q-42 -17 -83 -17
q-67 0 -85 61q-19 -23 -50 -41.5t-80 -18.5q-35 0 -61.5 13.5t-43.5 36.5t-25.5 54.5t-8.5 67.5q0 95 43.5 143.5t132.5 48.5q20 0 36.5 -3t32.5 -8v17q0 47 -24 66t-57 19q-31 0 -61.5 -7.5t-53.5 -15.5zM274 776l97 -133l-62 -55l-89 94l-89 -94l-64 54l101 134h106z" />
    <glyph glyph-name="atilde" unicode="&#xe3;" horiz-adv-x="464" 
d="M266 254q-7 4 -18 7t-27 3q-29 0 -45.5 -20t-16.5 -67q0 -36 11.5 -56.5t34.5 -20.5q18 0 34.5 11t26.5 25v118zM57 529q11 4 28.5 9t38.5 9.5t44 7.5t44 3q47 0 82 -10t58.5 -37t35.5 -75t12 -124v-178q0 -18 5.5 -29t19.5 -11q7 0 22 5l11 -93q-42 -17 -83 -17
q-67 0 -85 61q-19 -23 -50 -41.5t-80 -18.5q-35 0 -61.5 13.5t-43.5 36.5t-25.5 54.5t-8.5 67.5q0 95 43.5 143.5t132.5 48.5q20 0 36.5 -3t32.5 -8v17q0 47 -24 66t-57 19q-31 0 -61.5 -7.5t-53.5 -15.5zM87 711q12 13 36 24t45 11q15 0 28.5 -4.5t27 -9.5t27 -9.5
t28.5 -4.5t30 5.5t26 14.5l8 -102q-14 -10 -31 -13.5t-30 -3.5q-15 0 -29.5 3.5t-28.5 8t-27 8t-24 3.5q-14 0 -34 -7t-36 -20z" />
    <glyph glyph-name="adieresis" unicode="&#xe4;" horiz-adv-x="464" 
d="M266 254q-7 4 -18 7t-27 3q-29 0 -45.5 -20t-16.5 -67q0 -36 11.5 -56.5t34.5 -20.5q18 0 34.5 11t26.5 25v118zM57 529q11 4 28.5 9t38.5 9.5t44 7.5t44 3q47 0 82 -10t58.5 -37t35.5 -75t12 -124v-178q0 -18 5.5 -29t19.5 -11q7 0 22 5l11 -93q-42 -17 -83 -17
q-67 0 -85 61q-19 -23 -50 -41.5t-80 -18.5q-35 0 -61.5 13.5t-43.5 36.5t-25.5 54.5t-8.5 67.5q0 95 43.5 143.5t132.5 48.5q20 0 36.5 -3t32.5 -8v17q0 47 -24 66t-57 19q-31 0 -61.5 -7.5t-53.5 -15.5zM245 685q0 35 18.5 54.5t47.5 19.5q69 0 69 -74q0 -36 -19.5 -55.5
t-49.5 -19.5t-48 20t-18 55zM68 685q0 35 18.5 54.5t47.5 19.5q69 0 69 -74q0 -36 -19.5 -55.5t-49.5 -19.5t-48 20t-18 55z" />
    <glyph glyph-name="aring" unicode="&#xe5;" horiz-adv-x="464" 
d="M266 254q-7 4 -18 7t-27 3q-29 0 -45.5 -20t-16.5 -67q0 -36 11.5 -56.5t34.5 -20.5q18 0 34.5 11t26.5 25v118zM57 529q11 4 28.5 9t38.5 9.5t44 7.5t44 3q47 0 82 -10t58.5 -37t35.5 -75t12 -124v-178q0 -18 5.5 -29t19.5 -11q7 0 22 5l11 -93q-42 -17 -83 -17
q-67 0 -85 61q-19 -23 -50 -41.5t-80 -18.5q-35 0 -61.5 13.5t-43.5 36.5t-25.5 54.5t-8.5 67.5q0 95 43.5 143.5t132.5 48.5q20 0 36.5 -3t32.5 -8v17q0 47 -24 66t-57 19q-31 0 -61.5 -7.5t-53.5 -15.5zM179 709q0 -24 10 -40.5t30 -16.5t30 17t10 40q0 24 -10 40t-30 16
q-21 0 -30.5 -16t-9.5 -40zM110 709q0 26 8 48.5t22.5 39t34.5 26t44 9.5q26 0 46 -9.5t34 -26t21.5 -37.5t7.5 -45q0 -55 -31 -92t-81 -37q-51 0 -78.5 36.5t-27.5 87.5z" />
    <glyph glyph-name="ae" unicode="&#xe6;" horiz-adv-x="656" 
d="M451 450q-22 0 -36.5 -22.5t-14.5 -76.5v-15h101v21q0 55 -14 74t-36 19zM278 143q-6 25 -8.5 52t-3.5 55q-17 11 -47 11q-28 0 -44 -20.5t-16 -63.5q0 -36 14.5 -56.5t38.5 -20.5q19 0 36.5 11.5t29.5 31.5zM400 246q1 -39 9 -65t20.5 -41.5t28.5 -21.5t33 -6
q32 0 60.5 8.5t62.5 28.5l8 -123q-24 -15 -63.5 -26t-81.5 -11q-55 0 -91.5 20t-59.5 52q-31 -30 -67 -50.5t-81 -20.5q-42 0 -72 13.5t-49 36.5t-27.5 54.5t-8.5 67.5q0 94 43.5 142.5t132.5 48.5q20 0 34.5 -2.5t34.5 -7.5v16q0 47 -24.5 67t-58.5 20q-29 0 -59.5 -7
t-53.5 -15l-10 109q12 5 29.5 9.5t37.5 8t40.5 5.5t37.5 2q104 0 135 -70q22 31 52 50.5t75 19.5q87 0 126 -62t39 -182v-68h-232z" />
    <glyph glyph-name="ccedilla" unicode="&#xe7;" horiz-adv-x="403" 
d="M148 -56q15 5 29 7t34 2q45 0 67 -27.5t22 -64.5q0 -35 -11 -59t-29 -38.5t-39.5 -21t-42.5 -6.5q-16 0 -28.5 2t-27.5 7l12 68q21 -7 41 -7q17 0 29.5 11.5t12.5 33.5t-12 27.5t-21 5.5q-12 0 -36 -6v66zM263 112q28 0 57 10.5t52 24.5l9 -123q-23 -13 -59 -24.5
t-82 -11.5q-63 0 -104.5 24t-66 64t-34.5 91.5t-10 105.5q0 58 10 109.5t34 90.5t64 62t99 23q38 0 66.5 -12.5t49 -33.5t33 -50t17.5 -62l-116 -38q-6 32 -16 53.5t-37 21.5q-17 0 -27.5 -11.5t-17.5 -32.5t-9.5 -49.5t-2.5 -61.5q0 -87 20 -128.5t71 -41.5z" />
    <glyph glyph-name="egrave" unicode="&#xe8;" horiz-adv-x="422" 
d="M219 449q-25 0 -38.5 -21t-13.5 -66v-26h101v23q0 53 -13.5 71.5t-35.5 18.5zM168 246q3 -70 24.5 -102t67.5 -32q32 0 60.5 8.5t61.5 29.5l7 -124q-24 -14 -62.5 -25.5t-80.5 -11.5q-65 0 -108 22t-68 61t-35 92t-10 116q0 78 15.5 131t42.5 85.5t63 47t77 14.5
q91 0 133.5 -61.5t42.5 -184.5v-66h-231zM284 591l-180 99l54 91l171 -118z" />
    <glyph glyph-name="eacute" unicode="&#xe9;" horiz-adv-x="422" 
d="M219 449q-25 0 -38.5 -21t-13.5 -66v-26h101v23q0 53 -13.5 71.5t-35.5 18.5zM168 246q3 -70 24.5 -102t67.5 -32q32 0 60.5 8.5t61.5 29.5l7 -124q-24 -14 -62.5 -25.5t-80.5 -11.5q-65 0 -108 22t-68 61t-35 92t-10 116q0 78 15.5 131t42.5 85.5t63 47t77 14.5
q91 0 133.5 -61.5t42.5 -184.5v-66h-231zM137 664l172 118l51 -93l-180 -98z" />
    <glyph glyph-name="ecircumflex" unicode="&#xea;" horiz-adv-x="422" 
d="M219 449q-25 0 -38.5 -21t-13.5 -66v-26h101v23q0 53 -13.5 71.5t-35.5 18.5zM168 246q3 -70 24.5 -102t67.5 -32q32 0 60.5 8.5t61.5 29.5l7 -124q-24 -14 -62.5 -25.5t-80.5 -11.5q-65 0 -108 22t-68 61t-35 92t-10 116q0 78 15.5 131t42.5 85.5t63 47t77 14.5
q91 0 133.5 -61.5t42.5 -184.5v-66h-231zM280 776l97 -133l-62 -55l-89 94l-89 -94l-64 54l101 134h106z" />
    <glyph glyph-name="edieresis" unicode="&#xeb;" horiz-adv-x="422" 
d="M219 449q-25 0 -38.5 -21t-13.5 -66v-26h101v23q0 53 -13.5 71.5t-35.5 18.5zM168 246q3 -70 24.5 -102t67.5 -32q32 0 60.5 8.5t61.5 29.5l7 -124q-24 -14 -62.5 -25.5t-80.5 -11.5q-65 0 -108 22t-68 61t-35 92t-10 116q0 78 15.5 131t42.5 85.5t63 47t77 14.5
q91 0 133.5 -61.5t42.5 -184.5v-66h-231zM245 685q0 35 18.5 54.5t47.5 19.5q69 0 69 -74q0 -36 -19.5 -55.5t-49.5 -19.5t-48 20t-18 55zM68 685q0 35 18.5 54.5t47.5 19.5q69 0 69 -74q0 -36 -19.5 -55.5t-49.5 -19.5t-48 20t-18 55z" />
    <glyph glyph-name="igrave" unicode="&#xec;" horiz-adv-x="236" 
d="M189 549v-549h-142v549h142zM190 591l-180 99l54 91l171 -118z" />
    <glyph glyph-name="iacute" unicode="&#xed;" horiz-adv-x="236" 
d="M189 549v-549h-142v549h142zM4 664l172 118l51 -93l-180 -98z" />
    <glyph glyph-name="icircumflex" unicode="&#xee;" horiz-adv-x="236" 
d="M189 549v-549h-142v549h142zM173 776l97 -133l-62 -55l-89 94l-89 -94l-64 54l101 134h106z" />
    <glyph glyph-name="idieresis" unicode="&#xef;" horiz-adv-x="236" 
d="M189 549v-549h-142v549h142zM138 685q0 35 18.5 54.5t47.5 19.5q69 0 69 -74q0 -36 -19.5 -55.5t-49.5 -19.5t-48 20t-18 55zM-39 685q0 35 18.5 54.5t47.5 19.5q69 0 69 -74q0 -36 -19.5 -55.5t-49.5 -19.5t-48 20t-18 55z" />
    <glyph glyph-name="eth" unicode="&#xf0;" horiz-adv-x="442" 
d="M272 499q-10 39 -32.5 67.5t-51 48.5t-59 31.5t-57.5 16.5l31 106q42 -5 80.5 -22.5t69.5 -37.5l59 72l78 -69l-56 -71q43 -57 65 -144.5t22 -190.5q0 -158 -50.5 -238t-159.5 -80q-52 0 -89.5 20t-61.5 56.5t-35 86.5t-11 110q0 65 13.5 114t37.5 82t57 50t72 17
q23 0 42.5 -7t35.5 -18zM219 102q22 0 34.5 17t19 44t8.5 61.5t2 70.5q0 11 -0.5 24.5t-1.5 27.5t-2.5 27.5t-2.5 23.5q-20 19 -51 19q-36 0 -51 -43t-15 -112q0 -36 2 -65.5t8.5 -50.5t18.5 -32.5t31 -11.5z" />
    <glyph glyph-name="ntilde" unicode="&#xf1;" horiz-adv-x="483" 
d="M309 558q62 0 90 -31.5t33 -79.5q2 -14 2.5 -37.5t0.5 -37.5v-372h-142v353q0 7 0.5 19.5t-1.5 27.5q-2 17 -12.5 25t-26.5 8q-19 0 -35.5 -10.5t-27.5 -21.5v-401h-143v549h124l6 -50q24 23 57 41t75 18zM115 711q12 13 36 24t45 11q15 0 28.5 -4.5t27 -9.5t27 -9.5
t28.5 -4.5t30 5.5t26 14.5l8 -102q-14 -10 -31 -13.5t-30 -3.5q-15 0 -29.5 3.5t-28.5 8t-27 8t-24 3.5q-14 0 -34 -7t-36 -20z" />
    <glyph glyph-name="ograve" unicode="&#xf2;" horiz-adv-x="461" 
d="M230 106q35 0 47 41.5t12 126.5q0 81 -10.5 123.5t-45.5 42.5q-38 0 -49.5 -43t-11.5 -127q0 -88 11.5 -126t46.5 -38zM226 -13q-59 0 -97.5 21t-61.5 58.5t-32.5 89.5t-9.5 114q0 137 51 212.5t159 75.5q58 0 97 -20t61.5 -56.5t32 -87.5t9.5 -114q0 -64 -11 -118
t-35.5 -93t-64.5 -60.5t-98 -21.5zM292 591l-180 99l54 91l171 -118z" />
    <glyph glyph-name="oacute" unicode="&#xf3;" horiz-adv-x="461" 
d="M230 106q35 0 47 41.5t12 126.5q0 81 -10.5 123.5t-45.5 42.5q-38 0 -49.5 -43t-11.5 -127q0 -88 11.5 -126t46.5 -38zM226 -13q-59 0 -97.5 21t-61.5 58.5t-32.5 89.5t-9.5 114q0 137 51 212.5t159 75.5q58 0 97 -20t61.5 -56.5t32 -87.5t9.5 -114q0 -64 -11 -118
t-35.5 -93t-64.5 -60.5t-98 -21.5zM156 664l172 118l51 -93l-180 -98z" />
    <glyph glyph-name="ocircumflex" unicode="&#xf4;" horiz-adv-x="461" 
d="M230 106q35 0 47 41.5t12 126.5q0 81 -10.5 123.5t-45.5 42.5q-38 0 -49.5 -43t-11.5 -127q0 -88 11.5 -126t46.5 -38zM226 -13q-59 0 -97.5 21t-61.5 58.5t-32.5 89.5t-9.5 114q0 137 51 212.5t159 75.5q58 0 97 -20t61.5 -56.5t32 -87.5t9.5 -114q0 -64 -11 -118
t-35.5 -93t-64.5 -60.5t-98 -21.5zM292 776l97 -133l-62 -55l-89 94l-89 -94l-64 54l101 134h106z" />
    <glyph glyph-name="otilde" unicode="&#xf5;" horiz-adv-x="461" 
d="M230 106q35 0 47 41.5t12 126.5q0 81 -10.5 123.5t-45.5 42.5q-38 0 -49.5 -43t-11.5 -127q0 -88 11.5 -126t46.5 -38zM226 -13q-59 0 -97.5 21t-61.5 58.5t-32.5 89.5t-9.5 114q0 137 51 212.5t159 75.5q58 0 97 -20t61.5 -56.5t32 -87.5t9.5 -114q0 -64 -11 -118
t-35.5 -93t-64.5 -60.5t-98 -21.5zM112 711q12 13 36 24t45 11q15 0 28.5 -4.5t27 -9.5t27 -9.5t28.5 -4.5t30 5.5t26 14.5l8 -102q-14 -10 -31 -13.5t-30 -3.5q-15 0 -29.5 3.5t-28.5 8t-27 8t-24 3.5q-14 0 -34 -7t-36 -20z" />
    <glyph glyph-name="odieresis" unicode="&#xf6;" horiz-adv-x="461" 
d="M230 106q35 0 47 41.5t12 126.5q0 81 -10.5 123.5t-45.5 42.5q-38 0 -49.5 -43t-11.5 -127q0 -88 11.5 -126t46.5 -38zM226 -13q-59 0 -97.5 21t-61.5 58.5t-32.5 89.5t-9.5 114q0 137 51 212.5t159 75.5q58 0 97 -20t61.5 -56.5t32 -87.5t9.5 -114q0 -64 -11 -118
t-35.5 -93t-64.5 -60.5t-98 -21.5zM259 685q0 35 18.5 54.5t47.5 19.5q69 0 69 -74q0 -36 -19.5 -55.5t-49.5 -19.5t-48 20t-18 55zM82 685q0 35 18.5 54.5t47.5 19.5q69 0 69 -74q0 -36 -19.5 -55.5t-49.5 -19.5t-48 20t-18 55z" />
    <glyph glyph-name="divide" unicode="&#xf7;" horiz-adv-x="500" 
d="M52 372v-123h396v123h-396zM184 119q0 29 16 52t48 23q31 0 47.5 -21t16.5 -53t-17 -54.5t-48 -22.5t-47 21.5t-16 54.5zM184 506q0 29 16 52.5t48 23.5q31 0 47.5 -21.5t16.5 -53.5t-17 -54t-48 -22t-47 21t-16 54z" />
    <glyph glyph-name="oslash" unicode="&#xf8;" horiz-adv-x="461" 
d="M230 106q35 0 47 45t12 123v25l-81 -188q10 -5 22 -5zM172 229l87 201q-12 10 -26 10q-38 0 -49.5 -45t-11.5 -125v-41zM226 -13q-35 0 -62 9l-31 -72l-84 38l37 84q-33 39 -47 97t-14 127q0 136 51.5 212t158.5 76q40 0 69 -10l30 69l82 -39l-35 -81q30 -38 42 -93.5
t12 -123.5q0 -64 -11 -118t-36 -93t-65 -60.5t-97 -21.5z" />
    <glyph glyph-name="ugrave" unicode="&#xf9;" horiz-adv-x="481" 
d="M177 -10q-63 0 -92.5 29t-36.5 84q-2 14 -3 34t-1 34v362l144 16v-354v-20.5t1 -19.5q3 -25 13.5 -32.5t25.5 -7.5q19 0 35 11.5t29 25.5v397h142v-549h-124l-6 48q-23 -25 -54 -41.5t-73 -16.5zM293 591l-180 99l54 91l171 -118z" />
    <glyph glyph-name="uacute" unicode="&#xfa;" horiz-adv-x="481" 
d="M177 -10q-63 0 -92.5 29t-36.5 84q-2 14 -3 34t-1 34v362l144 16v-354v-20.5t1 -19.5q3 -25 13.5 -32.5t25.5 -7.5q19 0 35 11.5t29 25.5v397h142v-549h-124l-6 48q-23 -25 -54 -41.5t-73 -16.5zM143 664l172 118l51 -93l-180 -98z" />
    <glyph glyph-name="ucircumflex" unicode="&#xfb;" horiz-adv-x="481" 
d="M177 -10q-63 0 -92.5 29t-36.5 84q-2 14 -3 34t-1 34v362l144 16v-354v-20.5t1 -19.5q3 -25 13.5 -32.5t25.5 -7.5q19 0 35 11.5t29 25.5v397h142v-549h-124l-6 48q-23 -25 -54 -41.5t-73 -16.5zM296 776l97 -133l-62 -55l-89 94l-89 -94l-64 54l101 134h106z" />
    <glyph glyph-name="udieresis" unicode="&#xfc;" horiz-adv-x="481" 
d="M177 -10q-63 0 -92.5 29t-36.5 84q-2 14 -3 34t-1 34v362l144 16v-354v-20.5t1 -19.5q3 -25 13.5 -32.5t25.5 -7.5q19 0 35 11.5t29 25.5v397h142v-549h-124l-6 48q-23 -25 -54 -41.5t-73 -16.5zM262 685q0 35 18.5 54.5t47.5 19.5q69 0 69 -74q0 -36 -19.5 -55.5
t-49.5 -19.5t-48 20t-18 55zM85 685q0 35 18.5 54.5t47.5 19.5q69 0 69 -74q0 -36 -19.5 -55.5t-49.5 -19.5t-48 20t-18 55z" />
    <glyph glyph-name="yacute" unicode="&#xfd;" horiz-adv-x="452" 
d="M446 533q-16 -69 -34.5 -140t-37.5 -138.5t-38 -129.5t-37 -115t-38.5 -97t-46 -75.5t-58.5 -49.5t-77 -18q-45 0 -82.5 12.5t-61.5 27.5l36 119q28 -16 50.5 -23t42.5 -7q17 0 29.5 5t22 18t18.5 34.5t18 53.5l-148 523l145 16l79 -361h5q7 28 16.5 71t19.5 92t20 100.5
t18 97.5zM150 664l172 118l51 -93l-180 -98z" />
    <glyph glyph-name="thorn" unicode="&#xfe;" horiz-adv-x="471" 
d="M302 293q0 41 -3.5 68t-10.5 42.5t-17.5 22t-23.5 6.5q-20 0 -37 -11t-21 -17v-277q3 -5 15.5 -13t32.5 -8q19 0 31.5 13.5t20 38t10.5 59t3 76.5zM185 719v-212q18 20 42.5 35.5t62.5 15.5q34 0 62.5 -14t49 -44t32 -76t11.5 -110q0 -72 -9.5 -131.5t-29.5 -101.5
t-51 -65t-75 -23q-56 0 -93 29v-231h-140v928h138z" />
    <glyph glyph-name="ydieresis" unicode="&#xff;" horiz-adv-x="452" 
d="M446 533q-16 -69 -34.5 -140t-37.5 -138.5t-38 -129.5t-37 -115t-38.5 -97t-46 -75.5t-58.5 -49.5t-77 -18q-45 0 -82.5 12.5t-61.5 27.5l36 119q28 -16 50.5 -23t42.5 -7q17 0 29.5 5t22 18t18.5 34.5t18 53.5l-148 523l145 16l79 -361h5q7 28 16.5 71t19.5 92t20 100.5
t18 97.5zM251 685q0 35 18.5 54.5t47.5 19.5q69 0 69 -74q0 -36 -19.5 -55.5t-49.5 -19.5t-48 20t-18 55zM74 685q0 35 18.5 54.5t47.5 19.5q69 0 69 -74q0 -36 -19.5 -55.5t-49.5 -19.5t-48 20t-18 55z" />
    <glyph glyph-name="dotlessi" unicode="&#x131;" horiz-adv-x="236" 
d="M189 549v-549h-142v549h142z" />
    <glyph glyph-name="OE" unicode="&#x152;" horiz-adv-x="791" 
d="M378 374q0 69 -6 114t-18 71.5t-29.5 37.5t-39.5 11q-21 0 -39 -11.5t-31 -39t-20 -73t-7 -114.5q0 -71 6 -120.5t18 -80.5t29.5 -45t40.5 -14q22 0 39.5 11t30 40.5t19.5 80.5t7 132zM280 -14q-54 0 -99.5 18t-78.5 62.5t-51.5 118.5t-18.5 185q0 181 67.5 272.5
t186.5 91.5q23 0 45 -4t40 -11h385v-120h-263q14 -33 21.5 -75.5t10.5 -96.5h199v-120h-201q-3 -63 -12.5 -107.5t-23.5 -78.5h278v-121h-399q-17 -5 -41.5 -9.5t-44.5 -4.5z" />
    <glyph glyph-name="oe" unicode="&#x153;" horiz-adv-x="684" 
d="M479 449q-25 0 -38.5 -21t-13.5 -66v-26h101v23q0 53 -13.5 71.5t-35.5 18.5zM230 106q35 0 47 45t12 123q0 76 -10.5 121t-45.5 45q-38 0 -49.5 -45t-11.5 -125q0 -83 11.5 -123.5t46.5 -40.5zM428 246q3 -70 24.5 -102t67.5 -32q32 0 60.5 8.5t61.5 29.5l7 -124
q-24 -14 -62.5 -25.5t-80.5 -11.5q-52 0 -88 19.5t-60 49.5q-9 -12 -23 -25t-32 -23t-39 -16.5t-44 -6.5q-57 0 -94.5 22.5t-60 61t-31.5 90t-9 109.5q0 65 12.5 118.5t38 91t64.5 58t93 20.5q45 0 77.5 -18t52.5 -46q25 29 55.5 46.5t73.5 17.5q167 0 167 -246v-66h-231z
" />
    <glyph glyph-name="Scaron" unicode="&#x160;" horiz-adv-x="471" 
d="M63 177q42 -29 83 -44.5t74 -15.5q34 0 59 17t25 58q0 25 -9 43t-24.5 31.5t-35.5 24t-42 20.5q-30 13 -60 28.5t-55 39t-40.5 57t-15.5 84.5q0 47 15 86.5t43 68t68 44t90 15.5q54 0 92 -15.5t62.5 -41t38.5 -57t21 -63.5l-135 -41q-11 43 -33 64.5t-52 21.5
q-26 0 -44.5 -14t-18.5 -47q0 -20 8 -35t21.5 -27.5t31 -22.5t37.5 -20q30 -15 62 -32t58.5 -42.5t43.5 -62t17 -91.5q0 -52 -16 -93t-46 -69.5t-72 -44t-93 -15.5q-38 0 -69.5 6.5t-57 15.5t-45 19.5t-31.5 19.5zM187 767l-85 109l56 50l85 -69l86 69l56 -54l-92 -105h-106
z" />
    <glyph glyph-name="scaron" unicode="&#x161;" horiz-adv-x="398" 
d="M56 156q23 -19 58.5 -34.5t66.5 -15.5q23 0 38 12t15 37q0 22 -15.5 35.5t-38.5 24t-49.5 21.5t-49.5 29.5t-38.5 47t-15.5 74.5q0 40 14.5 71.5t39 53.5t57.5 34t70 12q44 0 75 -11.5t51 -29t31.5 -39t17.5 -40.5l-110 -49q-18 59 -61 59q-18 0 -30.5 -11t-12.5 -34
q0 -22 15.5 -35.5t38.5 -25.5t49.5 -24.5t49.5 -31.5t38.5 -48t15.5 -73q0 -84 -50 -130.5t-135 -46.5q-28 0 -54.5 5t-49.5 12.5t-41.5 17t-28.5 17.5zM268 589h-106l-99 137l68 51l87 -94l91 94l64 -55z" />
    <glyph glyph-name="Ydieresis" unicode="&#x178;" horiz-adv-x="551" 
d="M390 719h161l-200 -439v-280h-148v279l-203 440h163l86 -221q11 -26 16.5 -45t12.5 -46h3q5 27 12 52t15 45zM301 847q0 35 18.5 54.5t47.5 19.5q69 0 69 -74q0 -36 -19.5 -55.5t-49.5 -19.5t-48 20t-18 55zM124 847q0 35 18.5 54.5t47.5 19.5q69 0 69 -74
q0 -36 -19.5 -55.5t-49.5 -19.5t-48 20t-18 55z" />
    <glyph glyph-name="Zcaron" unicode="&#x17d;" horiz-adv-x="500" 
d="M32 719h448v-104l-286 -497h276v-118h-453v95l288 508h-273v116zM206 767l-85 109l56 50l85 -69l86 69l56 -54l-92 -105h-106z" />
    <glyph glyph-name="zcaron" unicode="&#x17e;" horiz-adv-x="408" 
d="M187 110h196v-110h-365v95l198 346h-187v108h360v-88zM261 589h-106l-99 137l68 51l87 -94l91 94l64 -55z" />
    <glyph glyph-name="florin" unicode="&#x192;" horiz-adv-x="464" 
d="M278 333l-50 -332q-6 -39 -20.5 -71.5t-38 -56.5t-57 -37t-77.5 -13q-29 0 -57 4.5t-48 14.5l19 108q40 -16 74 -16q26 0 42.5 18t21.5 50l50 331h-63l18 107h63q3 17 6 41.5t6 41.5q14 85 60 130t134 45q58 0 98 -20l-16 -106q-21 8 -38.5 11t-32.5 3q-32 0 -46 -18
t-19 -56l-11 -72h102l-18 -107h-102z" />
    <glyph glyph-name="circumflex" unicode="&#x2c6;" 
d="M255 776l97 -133l-62 -55l-89 94l-89 -94l-64 54l101 134h106z" />
    <glyph glyph-name="caron" unicode="&#x2c7;" 
d="M250 589h-106l-99 137l68 51l87 -94l91 94l64 -55z" />
    <glyph glyph-name="ring" unicode="&#x2da;" 
d="M160 709q0 -24 10 -40.5t30 -16.5t30 17t10 40q0 24 -10 40t-30 16q-21 0 -30.5 -16t-9.5 -40zM91 709q0 26 8 48.5t22.5 39t34.5 26t44 9.5q26 0 46 -9.5t34 -26t21.5 -37.5t7.5 -45q0 -55 -31 -92t-81 -37q-51 0 -78.5 36.5t-27.5 87.5z" />
    <glyph glyph-name="tilde" unicode="&#x2dc;" 
d="M72 711q12 13 36 24t45 11q15 0 28.5 -4.5t27 -9.5t27 -9.5t28.5 -4.5t30 5.5t26 14.5l8 -102q-14 -10 -31 -13.5t-30 -3.5q-15 0 -29.5 3.5t-28.5 8t-27 8t-24 3.5q-14 0 -34 -7t-36 -20z" />
    <glyph glyph-name="endash" unicode="&#x2013;" horiz-adv-x="425" 
d="M0 338h425v-115h-425v115z" />
    <glyph glyph-name="emdash" unicode="&#x2014;" horiz-adv-x="850" 
d="M0 338h850v-115h-850v115z" />
    <glyph glyph-name="quoteleft" unicode="&#x2018;" horiz-adv-x="203" 
d="M158 564q1 -32 -13 -55.5t-48 -23.5q-32 0 -46.5 16.5t-14.5 40.5q0 26 7 57l39 179l70 -6z" />
    <glyph glyph-name="quoteright" unicode="&#x2019;" horiz-adv-x="203" 
d="M47 697q-1 32 13 56.5t48 24.5q32 0 46.5 -16.5t14.5 -40.5q0 -26 -7 -57l-39 -179l-70 6z" />
    <glyph glyph-name="quotesinglbase" unicode="&#x201a;" horiz-adv-x="208" 
d="M45 57q-1 32 13 56.5t48 24.5q32 0 46.5 -16.5t14.5 -40.5q0 -26 -7 -57l-39 -179l-70 6z" />
    <glyph glyph-name="quotedblleft" unicode="&#x201c;" horiz-adv-x="378" 
d="M332 566q1 -32 -13 -56.5t-48 -24.5q-32 0 -46.5 16.5t-14.5 40.5q0 26 7 57l39 179l70 -6zM158 566q1 -32 -13 -56.5t-48 -24.5q-32 0 -46.5 16.5t-14.5 40.5q0 26 7 57l39 179l70 -6z" />
    <glyph glyph-name="quotedblright" unicode="&#x201d;" horiz-adv-x="378" 
d="M46 697q-1 32 13 56.5t48 24.5q32 0 46.5 -16.5t14.5 -40.5q0 -26 -7 -57l-39 -179l-70 6zM220 697q-1 32 13 56.5t48 24.5q32 0 46.5 -16.5t14.5 -40.5q0 -26 -7 -57l-39 -179l-70 6z" />
    <glyph glyph-name="quotedblbase" unicode="&#x201e;" horiz-adv-x="389" 
d="M46 57q-1 32 13 56.5t48 24.5q32 0 46.5 -16.5t14.5 -40.5q0 -26 -7 -57l-39 -179l-70 6zM220 57q-1 32 13 56.5t48 24.5q32 0 46.5 -16.5t14.5 -40.5q0 -26 -7 -57l-39 -179l-70 6z" />
    <glyph glyph-name="dagger" unicode="&#x2020;" horiz-adv-x="419" 
d="M144 444h-110v119h111l-16 156h152l-15 -156h119v-119h-120l15 -558h-152z" />
    <glyph glyph-name="daggerdbl" unicode="&#x2021;" horiz-adv-x="419" 
d="M144 444h-110v119h111l-16 156h152l-15 -156h119v-119h-120v-280h120v-119h-120l15 -159h-152l16 159h-110v119h110v280z" />
    <glyph glyph-name="bullet" unicode="&#x2022;" horiz-adv-x="368" 
d="M70 326q0 64 32 103.5t82 39.5t82 -39.5t32 -103.5t-32 -103t-82 -39t-82 38t-32 104z" />
    <glyph glyph-name="ellipsis" unicode="&#x2026;" horiz-adv-x="698" 
d="M497 74q0 34 19.5 60t54.5 26t54.5 -23.5t19.5 -61.5q0 -35 -20.5 -60t-55.5 -25q-34 0 -53 23.5t-19 60.5zM270 74q0 34 19.5 60t54.5 26t54.5 -23.5t19.5 -61.5q0 -35 -20.5 -60t-55.5 -25q-34 0 -53 23.5t-19 60.5zM43 74q0 34 19.5 60t54.5 26t54.5 -23.5t19.5 -61.5
q0 -35 -20.5 -60t-55.5 -25q-34 0 -53 23.5t-19 60.5z" />
    <glyph glyph-name="perthousand" unicode="&#x2030;" horiz-adv-x="1031" 
d="M186 0l234 719h125l-235 -719h-124zM167 431q34 0 34 101q0 48 -7 75.5t-25 27.5t-27 -27.5t-9 -76.5q0 -47 8.5 -73.5t25.5 -26.5zM170 719q29 0 54 -10.5t43 -33t28.5 -57.5t10.5 -83q0 -95 -39.5 -142t-99.5 -47q-63 0 -100 48.5t-37 139.5q0 48 11.5 83t31 57.5
t45 33.5t52.5 11zM558 72q35 0 35 101q0 48 -7 75t-26 27q-17 0 -26 -27t-9 -76q0 -47 8 -73.5t25 -26.5zM561 360q58 0 97 -44t39 -141q0 -94 -39.5 -141t-98.5 -47q-63 0 -100 48.5t-37 138.5q0 48 11.5 83.5t31 58t44.5 33.5t52 11zM862 72q35 0 35 101q0 48 -7 75
t-26 27q-18 0 -26.5 -27t-8.5 -76q0 -47 8 -73.5t25 -26.5zM865 360q58 0 97 -44t39 -141q0 -94 -39.5 -141t-98.5 -47q-64 0 -101 48.5t-37 138.5q0 48 11.5 83.5t31 58t45 33.5t52.5 11z" />
    <glyph glyph-name="guilsinglleft" unicode="&#x2039;" horiz-adv-x="291" 
d="M195 63l-190 220l181 216l88 -76l-116 -138l123 -144z" />
    <glyph glyph-name="guilsinglright" unicode="&#x203a;" horiz-adv-x="291" 
d="M9 141l123 144l-116 138l88 76l181 -216l-190 -220z" />
    <glyph glyph-name="Euro" unicode="&#x20ac;" horiz-adv-x="491" 
d="M359 485q-9 48 -24.5 68t-41.5 20q-21 0 -34 -13.5t-20.5 -36.5t-10.5 -52.5t-3 -61.5h146v-124h-145q1 -39 4.5 -71.5t11.5 -56t22 -36.5t36 -13q29 0 46.5 20t37.5 58l93 -64q-19 -39 -40.5 -64.5t-44 -40.5t-47 -21t-49.5 -6q-61 0 -100.5 21t-63 59.5t-34 93
t-13.5 121.5h-62v124h60q4 58 15.5 110.5t36.5 92.5t65 63t100 23q48 0 79.5 -17t52 -43t31 -58t16.5 -62z" />
    <glyph glyph-name="trademark" unicode="&#x2122;" horiz-adv-x="726" 
d="M479 348l-38 127q-4 17 -7.5 36t-6.5 38h-3q-1 -20 -1 -42.5t-1 -39.5l-7 -156h-87l25 408h95l45 -162q7 -25 12.5 -54t9.5 -54h2q4 25 10.5 54t13.5 54l45 162h95l25 -408h-87l-9 156q-1 17 -1 39.5t-1 42.5h-3q-3 -19 -6.5 -38t-7.5 -36l-38 -127h-74zM13 719h289v-84
h-100v-324h-90v324h-99v84z" />
    <glyph glyph-name="glyph158" 
d="M72 878q12 13 36 24t45 11q15 0 28.5 -4.5t27 -9.5t27 -9.5t28.5 -4.5t30 5.5t26 14.5l8 -102q-14 -10 -31 -13.5t-30 -3.5q-15 0 -29.5 3.5t-28.5 8t-27 8t-24 3.5q-14 0 -34 -7t-36 -20z" />
    <glyph glyph-name="glyph159" 
d="M160 880q0 -24 10 -40.5t30 -16.5t30 17t10 40q0 24 -10 40t-30 16q-21 0 -30.5 -16t-9.5 -40zM91 880q0 26 8 48.5t22.5 39t34.5 26t44 9.5q26 0 46 -9.5t34 -26t21.5 -37.5t7.5 -45q0 -55 -31 -92t-81 -37q-51 0 -78.5 36.5t-27.5 87.5z" />
    <glyph glyph-name="glyph160" 
d="M256 918l85 -109l-56 -50l-85 69l-87 -69l-55 54l92 105h106z" />
    <glyph glyph-name="glyph161" 
d="M91 848l180 80l37 -102l-186 -59z" />
    <glyph glyph-name="glyph162" 
d="M277 766l-185 59l35 103l181 -80z" />
    <glyph glyph-name="glyph163" 
d="M221 847q0 35 18.5 54.5t47.5 19.5q69 0 69 -74q0 -36 -19.5 -55.5t-49.5 -19.5t-48 20t-18 55zM44 847q0 35 18.5 54.5t47.5 19.5q69 0 69 -74q0 -36 -19.5 -55.5t-49.5 -19.5t-48 20t-18 55z" />
    <glyph glyph-name="glyph164" 
d="M143 767l-85 109l56 50l85 -69l86 69l56 -54l-92 -105h-106z" />
    <glyph glyph-name="glyph229" horiz-adv-x="0" 
 />
    </font>
</defs>
</svg>
